<?xml version="1.0" encoding="utf-8" standalone="no"?>
<!DOCTYPE svg PUBLIC "-//W3C//DTD SVG 1.1//EN"
  "http://www.w3.org/Graphics/SVG/1.1/DTD/svg11.dtd">
<svg height="312.30825pt" version="1.1" viewBox="0 0 398.334426 312.30825" width="398.334426pt" xmlns="http://www.w3.org/2000/svg" xmlns:xlink="http://www.w3.org/1999/xlink">
 <metadata>
  <rdf:RDF xmlns:cc="http://creativecommons.org/ns#" xmlns:dc="http://purl.org/dc/elements/1.1/" xmlns:rdf="http://www.w3.org/1999/02/22-rdf-syntax-ns#">
   <cc:Work>
    <dc:type rdf:resource="http://purl.org/dc/dcmitype/StillImage"/>
    <dc:date>2021-05-02T17:15:14.332821</dc:date>
    <dc:format>image/svg+xml</dc:format>
    <dc:creator>
     <cc:Agent>
      <dc:title>Matplotlib v3.4.1, https://matplotlib.org/</dc:title>
     </cc:Agent>
    </dc:creator>
   </cc:Work>
  </rdf:RDF>
 </metadata>
 <defs>
  <style type="text/css">*{stroke-linecap:butt;stroke-linejoin:round;}</style>
 </defs>
 <g id="figure_1">
  <g id="patch_1">
   <path d="M 0 312.30825 
L 398.334426 312.30825 
L 398.334426 0 
L 0 0 
z
" style="fill:#ffffff;"/>
  </g>
  <g id="axes_1">
   <g id="patch_2">
    <path d="M 33.2875 288.430125 
L 390.4075 288.430125 
L 390.4075 22.318125 
L 33.2875 22.318125 
z
" style="fill:#ffffff;"/>
   </g>
   <g id="patch_3">
    <path clip-path="url(#p5365f7b753)" d="M 49.520227 288.430125 
L 52.766773 288.430125 
L 52.766773 232.110125 
L 49.520227 232.110125 
z
" style="fill:#0000ff;"/>
   </g>
   <g id="patch_4">
    <path clip-path="url(#p5365f7b753)" d="M 52.766773 288.430125 
L 56.013318 288.430125 
L 56.013318 219.113202 
L 52.766773 219.113202 
z
" style="fill:#0000ff;"/>
   </g>
   <g id="patch_5">
    <path clip-path="url(#p5365f7b753)" d="M 56.013318 288.430125 
L 59.259864 288.430125 
L 59.259864 67.482433 
L 56.013318 67.482433 
z
" style="fill:#0000ff;"/>
   </g>
   <g id="patch_6">
    <path clip-path="url(#p5365f7b753)" d="M 59.259864 288.430125 
L 62.506409 288.430125 
L 62.506409 34.990125 
L 59.259864 34.990125 
z
" style="fill:#0000ff;"/>
   </g>
   <g id="patch_7">
    <path clip-path="url(#p5365f7b753)" d="M 62.506409 288.430125 
L 65.752955 288.430125 
L 65.752955 67.482433 
L 62.506409 67.482433 
z
" style="fill:#0000ff;"/>
   </g>
   <g id="patch_8">
    <path clip-path="url(#p5365f7b753)" d="M 65.752955 288.430125 
L 68.9995 288.430125 
L 68.9995 141.131663 
L 65.752955 141.131663 
z
" style="fill:#0000ff;"/>
   </g>
   <g id="patch_9">
    <path clip-path="url(#p5365f7b753)" d="M 68.9995 288.430125 
L 72.246045 288.430125 
L 72.246045 160.627048 
L 68.9995 160.627048 
z
" style="fill:#0000ff;"/>
   </g>
   <g id="patch_10">
    <path clip-path="url(#p5365f7b753)" d="M 72.246045 288.430125 
L 75.492591 288.430125 
L 75.492591 177.956279 
L 72.246045 177.956279 
z
" style="fill:#0000ff;"/>
   </g>
   <g id="patch_11">
    <path clip-path="url(#p5365f7b753)" d="M 75.492591 288.430125 
L 78.739136 288.430125 
L 78.739136 219.113202 
L 75.492591 219.113202 
z
" style="fill:#0000ff;"/>
   </g>
   <g id="patch_12">
    <path clip-path="url(#p5365f7b753)" d="M 78.739136 288.430125 
L 81.985682 288.430125 
L 81.985682 240.77474 
L 78.739136 240.77474 
z
" style="fill:#0000ff;"/>
   </g>
   <g id="patch_13">
    <path clip-path="url(#p5365f7b753)" d="M 81.985682 288.430125 
L 85.232227 288.430125 
L 85.232227 255.937817 
L 81.985682 255.937817 
z
" style="fill:#0000ff;"/>
   </g>
   <g id="patch_14">
    <path clip-path="url(#p5365f7b753)" d="M 85.232227 288.430125 
L 88.478773 288.430125 
L 88.478773 260.270125 
L 85.232227 260.270125 
z
" style="fill:#0000ff;"/>
   </g>
   <g id="patch_15">
    <path clip-path="url(#p5365f7b753)" d="M 88.478773 288.430125 
L 91.725318 288.430125 
L 91.725318 260.270125 
L 88.478773 260.270125 
z
" style="fill:#0000ff;"/>
   </g>
   <g id="patch_16">
    <path clip-path="url(#p5365f7b753)" d="M 91.725318 288.430125 
L 94.971864 288.430125 
L 94.971864 264.602433 
L 91.725318 264.602433 
z
" style="fill:#0000ff;"/>
   </g>
   <g id="patch_17">
    <path clip-path="url(#p5365f7b753)" d="M 94.971864 288.430125 
L 98.218409 288.430125 
L 98.218409 273.267048 
L 94.971864 273.267048 
z
" style="fill:#0000ff;"/>
   </g>
   <g id="patch_18">
    <path clip-path="url(#p5365f7b753)" d="M 98.218409 288.430125 
L 101.464955 288.430125 
L 101.464955 275.433202 
L 98.218409 275.433202 
z
" style="fill:#0000ff;"/>
   </g>
   <g id="patch_19">
    <path clip-path="url(#p5365f7b753)" d="M 101.464955 288.430125 
L 104.7115 288.430125 
L 104.7115 275.433202 
L 101.464955 275.433202 
z
" style="fill:#0000ff;"/>
   </g>
   <g id="patch_20">
    <path clip-path="url(#p5365f7b753)" d="M 104.7115 288.430125 
L 107.958045 288.430125 
L 107.958045 286.263971 
L 104.7115 286.263971 
z
" style="fill:#0000ff;"/>
   </g>
   <g id="patch_21">
    <path clip-path="url(#p5365f7b753)" d="M 107.958045 288.430125 
L 111.204591 288.430125 
L 111.204591 284.097817 
L 107.958045 284.097817 
z
" style="fill:#0000ff;"/>
   </g>
   <g id="patch_22">
    <path clip-path="url(#p5365f7b753)" d="M 111.204591 288.430125 
L 114.451136 288.430125 
L 114.451136 284.097817 
L 111.204591 284.097817 
z
" style="fill:#0000ff;"/>
   </g>
   <g id="patch_23">
    <path clip-path="url(#p5365f7b753)" d="M 114.451136 288.430125 
L 117.697682 288.430125 
L 117.697682 286.263971 
L 114.451136 286.263971 
z
" style="fill:#0000ff;"/>
   </g>
   <g id="patch_24">
    <path clip-path="url(#p5365f7b753)" d="M 117.697682 288.430125 
L 120.944227 288.430125 
L 120.944227 284.097817 
L 117.697682 284.097817 
z
" style="fill:#0000ff;"/>
   </g>
   <g id="patch_25">
    <path clip-path="url(#p5365f7b753)" d="M 120.944227 288.430125 
L 124.190773 288.430125 
L 124.190773 281.931663 
L 120.944227 281.931663 
z
" style="fill:#0000ff;"/>
   </g>
   <g id="patch_26">
    <path clip-path="url(#p5365f7b753)" d="M 124.190773 288.430125 
L 127.437318 288.430125 
L 127.437318 288.430125 
L 124.190773 288.430125 
z
" style="fill:#0000ff;"/>
   </g>
   <g id="patch_27">
    <path clip-path="url(#p5365f7b753)" d="M 127.437318 288.430125 
L 130.683864 288.430125 
L 130.683864 284.097817 
L 127.437318 284.097817 
z
" style="fill:#0000ff;"/>
   </g>
   <g id="patch_28">
    <path clip-path="url(#p5365f7b753)" d="M 130.683864 288.430125 
L 133.930409 288.430125 
L 133.930409 286.263971 
L 130.683864 286.263971 
z
" style="fill:#0000ff;"/>
   </g>
   <g id="patch_29">
    <path clip-path="url(#p5365f7b753)" d="M 133.930409 288.430125 
L 137.176955 288.430125 
L 137.176955 286.263971 
L 133.930409 286.263971 
z
" style="fill:#0000ff;"/>
   </g>
   <g id="patch_30">
    <path clip-path="url(#p5365f7b753)" d="M 137.176955 288.430125 
L 140.4235 288.430125 
L 140.4235 288.430125 
L 137.176955 288.430125 
z
" style="fill:#0000ff;"/>
   </g>
   <g id="patch_31">
    <path clip-path="url(#p5365f7b753)" d="M 140.4235 288.430125 
L 143.670045 288.430125 
L 143.670045 288.430125 
L 140.4235 288.430125 
z
" style="fill:#0000ff;"/>
   </g>
   <g id="patch_32">
    <path clip-path="url(#p5365f7b753)" d="M 143.670045 288.430125 
L 146.916591 288.430125 
L 146.916591 286.263971 
L 143.670045 286.263971 
z
" style="fill:#0000ff;"/>
   </g>
   <g id="patch_33">
    <path clip-path="url(#p5365f7b753)" d="M 146.916591 288.430125 
L 150.163136 288.430125 
L 150.163136 288.430125 
L 146.916591 288.430125 
z
" style="fill:#0000ff;"/>
   </g>
   <g id="patch_34">
    <path clip-path="url(#p5365f7b753)" d="M 150.163136 288.430125 
L 153.409682 288.430125 
L 153.409682 286.263971 
L 150.163136 286.263971 
z
" style="fill:#0000ff;"/>
   </g>
   <g id="patch_35">
    <path clip-path="url(#p5365f7b753)" d="M 153.409682 288.430125 
L 156.656227 288.430125 
L 156.656227 288.430125 
L 153.409682 288.430125 
z
" style="fill:#0000ff;"/>
   </g>
   <g id="patch_36">
    <path clip-path="url(#p5365f7b753)" d="M 156.656227 288.430125 
L 159.902773 288.430125 
L 159.902773 288.430125 
L 156.656227 288.430125 
z
" style="fill:#0000ff;"/>
   </g>
   <g id="patch_37">
    <path clip-path="url(#p5365f7b753)" d="M 159.902773 288.430125 
L 163.149318 288.430125 
L 163.149318 286.263971 
L 159.902773 286.263971 
z
" style="fill:#0000ff;"/>
   </g>
   <g id="patch_38">
    <path clip-path="url(#p5365f7b753)" d="M 163.149318 288.430125 
L 166.395864 288.430125 
L 166.395864 288.430125 
L 163.149318 288.430125 
z
" style="fill:#0000ff;"/>
   </g>
   <g id="patch_39">
    <path clip-path="url(#p5365f7b753)" d="M 166.395864 288.430125 
L 169.642409 288.430125 
L 169.642409 288.430125 
L 166.395864 288.430125 
z
" style="fill:#0000ff;"/>
   </g>
   <g id="patch_40">
    <path clip-path="url(#p5365f7b753)" d="M 169.642409 288.430125 
L 172.888955 288.430125 
L 172.888955 288.430125 
L 169.642409 288.430125 
z
" style="fill:#0000ff;"/>
   </g>
   <g id="patch_41">
    <path clip-path="url(#p5365f7b753)" d="M 172.888955 288.430125 
L 176.1355 288.430125 
L 176.1355 288.430125 
L 172.888955 288.430125 
z
" style="fill:#0000ff;"/>
   </g>
   <g id="patch_42">
    <path clip-path="url(#p5365f7b753)" d="M 176.1355 288.430125 
L 179.382045 288.430125 
L 179.382045 288.430125 
L 176.1355 288.430125 
z
" style="fill:#0000ff;"/>
   </g>
   <g id="patch_43">
    <path clip-path="url(#p5365f7b753)" d="M 179.382045 288.430125 
L 182.628591 288.430125 
L 182.628591 288.430125 
L 179.382045 288.430125 
z
" style="fill:#0000ff;"/>
   </g>
   <g id="patch_44">
    <path clip-path="url(#p5365f7b753)" d="M 182.628591 288.430125 
L 185.875136 288.430125 
L 185.875136 288.430125 
L 182.628591 288.430125 
z
" style="fill:#0000ff;"/>
   </g>
   <g id="patch_45">
    <path clip-path="url(#p5365f7b753)" d="M 185.875136 288.430125 
L 189.121682 288.430125 
L 189.121682 288.430125 
L 185.875136 288.430125 
z
" style="fill:#0000ff;"/>
   </g>
   <g id="patch_46">
    <path clip-path="url(#p5365f7b753)" d="M 189.121682 288.430125 
L 192.368227 288.430125 
L 192.368227 288.430125 
L 189.121682 288.430125 
z
" style="fill:#0000ff;"/>
   </g>
   <g id="patch_47">
    <path clip-path="url(#p5365f7b753)" d="M 192.368227 288.430125 
L 195.614773 288.430125 
L 195.614773 288.430125 
L 192.368227 288.430125 
z
" style="fill:#0000ff;"/>
   </g>
   <g id="patch_48">
    <path clip-path="url(#p5365f7b753)" d="M 195.614773 288.430125 
L 198.861318 288.430125 
L 198.861318 288.430125 
L 195.614773 288.430125 
z
" style="fill:#0000ff;"/>
   </g>
   <g id="patch_49">
    <path clip-path="url(#p5365f7b753)" d="M 198.861318 288.430125 
L 202.107864 288.430125 
L 202.107864 288.430125 
L 198.861318 288.430125 
z
" style="fill:#0000ff;"/>
   </g>
   <g id="patch_50">
    <path clip-path="url(#p5365f7b753)" d="M 202.107864 288.430125 
L 205.354409 288.430125 
L 205.354409 288.430125 
L 202.107864 288.430125 
z
" style="fill:#0000ff;"/>
   </g>
   <g id="patch_51">
    <path clip-path="url(#p5365f7b753)" d="M 205.354409 288.430125 
L 208.600955 288.430125 
L 208.600955 286.263971 
L 205.354409 286.263971 
z
" style="fill:#0000ff;"/>
   </g>
   <g id="patch_52">
    <path clip-path="url(#p5365f7b753)" d="M 208.600955 288.430125 
L 211.8475 288.430125 
L 211.8475 288.430125 
L 208.600955 288.430125 
z
" style="fill:#0000ff;"/>
   </g>
   <g id="patch_53">
    <path clip-path="url(#p5365f7b753)" d="M 211.8475 288.430125 
L 215.094045 288.430125 
L 215.094045 288.430125 
L 211.8475 288.430125 
z
" style="fill:#0000ff;"/>
   </g>
   <g id="patch_54">
    <path clip-path="url(#p5365f7b753)" d="M 215.094045 288.430125 
L 218.340591 288.430125 
L 218.340591 286.263971 
L 215.094045 286.263971 
z
" style="fill:#0000ff;"/>
   </g>
   <g id="patch_55">
    <path clip-path="url(#p5365f7b753)" d="M 218.340591 288.430125 
L 221.587136 288.430125 
L 221.587136 288.430125 
L 218.340591 288.430125 
z
" style="fill:#0000ff;"/>
   </g>
   <g id="patch_56">
    <path clip-path="url(#p5365f7b753)" d="M 221.587136 288.430125 
L 224.833682 288.430125 
L 224.833682 288.430125 
L 221.587136 288.430125 
z
" style="fill:#0000ff;"/>
   </g>
   <g id="patch_57">
    <path clip-path="url(#p5365f7b753)" d="M 224.833682 288.430125 
L 228.080227 288.430125 
L 228.080227 288.430125 
L 224.833682 288.430125 
z
" style="fill:#0000ff;"/>
   </g>
   <g id="patch_58">
    <path clip-path="url(#p5365f7b753)" d="M 228.080227 288.430125 
L 231.326773 288.430125 
L 231.326773 288.430125 
L 228.080227 288.430125 
z
" style="fill:#0000ff;"/>
   </g>
   <g id="patch_59">
    <path clip-path="url(#p5365f7b753)" d="M 231.326773 288.430125 
L 234.573318 288.430125 
L 234.573318 288.430125 
L 231.326773 288.430125 
z
" style="fill:#0000ff;"/>
   </g>
   <g id="patch_60">
    <path clip-path="url(#p5365f7b753)" d="M 234.573318 288.430125 
L 237.819864 288.430125 
L 237.819864 288.430125 
L 234.573318 288.430125 
z
" style="fill:#0000ff;"/>
   </g>
   <g id="patch_61">
    <path clip-path="url(#p5365f7b753)" d="M 237.819864 288.430125 
L 241.066409 288.430125 
L 241.066409 288.430125 
L 237.819864 288.430125 
z
" style="fill:#0000ff;"/>
   </g>
   <g id="patch_62">
    <path clip-path="url(#p5365f7b753)" d="M 241.066409 288.430125 
L 244.312955 288.430125 
L 244.312955 288.430125 
L 241.066409 288.430125 
z
" style="fill:#0000ff;"/>
   </g>
   <g id="patch_63">
    <path clip-path="url(#p5365f7b753)" d="M 244.312955 288.430125 
L 247.5595 288.430125 
L 247.5595 288.430125 
L 244.312955 288.430125 
z
" style="fill:#0000ff;"/>
   </g>
   <g id="patch_64">
    <path clip-path="url(#p5365f7b753)" d="M 247.5595 288.430125 
L 250.806045 288.430125 
L 250.806045 288.430125 
L 247.5595 288.430125 
z
" style="fill:#0000ff;"/>
   </g>
   <g id="patch_65">
    <path clip-path="url(#p5365f7b753)" d="M 250.806045 288.430125 
L 254.052591 288.430125 
L 254.052591 288.430125 
L 250.806045 288.430125 
z
" style="fill:#0000ff;"/>
   </g>
   <g id="patch_66">
    <path clip-path="url(#p5365f7b753)" d="M 254.052591 288.430125 
L 257.299136 288.430125 
L 257.299136 288.430125 
L 254.052591 288.430125 
z
" style="fill:#0000ff;"/>
   </g>
   <g id="patch_67">
    <path clip-path="url(#p5365f7b753)" d="M 257.299136 288.430125 
L 260.545682 288.430125 
L 260.545682 288.430125 
L 257.299136 288.430125 
z
" style="fill:#0000ff;"/>
   </g>
   <g id="patch_68">
    <path clip-path="url(#p5365f7b753)" d="M 260.545682 288.430125 
L 263.792227 288.430125 
L 263.792227 288.430125 
L 260.545682 288.430125 
z
" style="fill:#0000ff;"/>
   </g>
   <g id="patch_69">
    <path clip-path="url(#p5365f7b753)" d="M 263.792227 288.430125 
L 267.038773 288.430125 
L 267.038773 288.430125 
L 263.792227 288.430125 
z
" style="fill:#0000ff;"/>
   </g>
   <g id="patch_70">
    <path clip-path="url(#p5365f7b753)" d="M 267.038773 288.430125 
L 270.285318 288.430125 
L 270.285318 288.430125 
L 267.038773 288.430125 
z
" style="fill:#0000ff;"/>
   </g>
   <g id="patch_71">
    <path clip-path="url(#p5365f7b753)" d="M 270.285318 288.430125 
L 273.531864 288.430125 
L 273.531864 288.430125 
L 270.285318 288.430125 
z
" style="fill:#0000ff;"/>
   </g>
   <g id="patch_72">
    <path clip-path="url(#p5365f7b753)" d="M 273.531864 288.430125 
L 276.778409 288.430125 
L 276.778409 288.430125 
L 273.531864 288.430125 
z
" style="fill:#0000ff;"/>
   </g>
   <g id="patch_73">
    <path clip-path="url(#p5365f7b753)" d="M 276.778409 288.430125 
L 280.024955 288.430125 
L 280.024955 288.430125 
L 276.778409 288.430125 
z
" style="fill:#0000ff;"/>
   </g>
   <g id="patch_74">
    <path clip-path="url(#p5365f7b753)" d="M 280.024955 288.430125 
L 283.2715 288.430125 
L 283.2715 288.430125 
L 280.024955 288.430125 
z
" style="fill:#0000ff;"/>
   </g>
   <g id="patch_75">
    <path clip-path="url(#p5365f7b753)" d="M 283.2715 288.430125 
L 286.518045 288.430125 
L 286.518045 288.430125 
L 283.2715 288.430125 
z
" style="fill:#0000ff;"/>
   </g>
   <g id="patch_76">
    <path clip-path="url(#p5365f7b753)" d="M 286.518045 288.430125 
L 289.764591 288.430125 
L 289.764591 288.430125 
L 286.518045 288.430125 
z
" style="fill:#0000ff;"/>
   </g>
   <g id="patch_77">
    <path clip-path="url(#p5365f7b753)" d="M 289.764591 288.430125 
L 293.011136 288.430125 
L 293.011136 288.430125 
L 289.764591 288.430125 
z
" style="fill:#0000ff;"/>
   </g>
   <g id="patch_78">
    <path clip-path="url(#p5365f7b753)" d="M 293.011136 288.430125 
L 296.257682 288.430125 
L 296.257682 288.430125 
L 293.011136 288.430125 
z
" style="fill:#0000ff;"/>
   </g>
   <g id="patch_79">
    <path clip-path="url(#p5365f7b753)" d="M 296.257682 288.430125 
L 299.504227 288.430125 
L 299.504227 288.430125 
L 296.257682 288.430125 
z
" style="fill:#0000ff;"/>
   </g>
   <g id="patch_80">
    <path clip-path="url(#p5365f7b753)" d="M 299.504227 288.430125 
L 302.750773 288.430125 
L 302.750773 288.430125 
L 299.504227 288.430125 
z
" style="fill:#0000ff;"/>
   </g>
   <g id="patch_81">
    <path clip-path="url(#p5365f7b753)" d="M 302.750773 288.430125 
L 305.997318 288.430125 
L 305.997318 288.430125 
L 302.750773 288.430125 
z
" style="fill:#0000ff;"/>
   </g>
   <g id="patch_82">
    <path clip-path="url(#p5365f7b753)" d="M 305.997318 288.430125 
L 309.243864 288.430125 
L 309.243864 288.430125 
L 305.997318 288.430125 
z
" style="fill:#0000ff;"/>
   </g>
   <g id="patch_83">
    <path clip-path="url(#p5365f7b753)" d="M 309.243864 288.430125 
L 312.490409 288.430125 
L 312.490409 288.430125 
L 309.243864 288.430125 
z
" style="fill:#0000ff;"/>
   </g>
   <g id="patch_84">
    <path clip-path="url(#p5365f7b753)" d="M 312.490409 288.430125 
L 315.736955 288.430125 
L 315.736955 288.430125 
L 312.490409 288.430125 
z
" style="fill:#0000ff;"/>
   </g>
   <g id="patch_85">
    <path clip-path="url(#p5365f7b753)" d="M 315.736955 288.430125 
L 318.9835 288.430125 
L 318.9835 288.430125 
L 315.736955 288.430125 
z
" style="fill:#0000ff;"/>
   </g>
   <g id="patch_86">
    <path clip-path="url(#p5365f7b753)" d="M 318.9835 288.430125 
L 322.230045 288.430125 
L 322.230045 288.430125 
L 318.9835 288.430125 
z
" style="fill:#0000ff;"/>
   </g>
   <g id="patch_87">
    <path clip-path="url(#p5365f7b753)" d="M 322.230045 288.430125 
L 325.476591 288.430125 
L 325.476591 288.430125 
L 322.230045 288.430125 
z
" style="fill:#0000ff;"/>
   </g>
   <g id="patch_88">
    <path clip-path="url(#p5365f7b753)" d="M 325.476591 288.430125 
L 328.723136 288.430125 
L 328.723136 288.430125 
L 325.476591 288.430125 
z
" style="fill:#0000ff;"/>
   </g>
   <g id="patch_89">
    <path clip-path="url(#p5365f7b753)" d="M 328.723136 288.430125 
L 331.969682 288.430125 
L 331.969682 288.430125 
L 328.723136 288.430125 
z
" style="fill:#0000ff;"/>
   </g>
   <g id="patch_90">
    <path clip-path="url(#p5365f7b753)" d="M 331.969682 288.430125 
L 335.216227 288.430125 
L 335.216227 288.430125 
L 331.969682 288.430125 
z
" style="fill:#0000ff;"/>
   </g>
   <g id="patch_91">
    <path clip-path="url(#p5365f7b753)" d="M 335.216227 288.430125 
L 338.462773 288.430125 
L 338.462773 288.430125 
L 335.216227 288.430125 
z
" style="fill:#0000ff;"/>
   </g>
   <g id="patch_92">
    <path clip-path="url(#p5365f7b753)" d="M 338.462773 288.430125 
L 341.709318 288.430125 
L 341.709318 288.430125 
L 338.462773 288.430125 
z
" style="fill:#0000ff;"/>
   </g>
   <g id="patch_93">
    <path clip-path="url(#p5365f7b753)" d="M 341.709318 288.430125 
L 344.955864 288.430125 
L 344.955864 288.430125 
L 341.709318 288.430125 
z
" style="fill:#0000ff;"/>
   </g>
   <g id="patch_94">
    <path clip-path="url(#p5365f7b753)" d="M 344.955864 288.430125 
L 348.202409 288.430125 
L 348.202409 288.430125 
L 344.955864 288.430125 
z
" style="fill:#0000ff;"/>
   </g>
   <g id="patch_95">
    <path clip-path="url(#p5365f7b753)" d="M 348.202409 288.430125 
L 351.448955 288.430125 
L 351.448955 288.430125 
L 348.202409 288.430125 
z
" style="fill:#0000ff;"/>
   </g>
   <g id="patch_96">
    <path clip-path="url(#p5365f7b753)" d="M 351.448955 288.430125 
L 354.6955 288.430125 
L 354.6955 288.430125 
L 351.448955 288.430125 
z
" style="fill:#0000ff;"/>
   </g>
   <g id="patch_97">
    <path clip-path="url(#p5365f7b753)" d="M 354.6955 288.430125 
L 357.942045 288.430125 
L 357.942045 288.430125 
L 354.6955 288.430125 
z
" style="fill:#0000ff;"/>
   </g>
   <g id="patch_98">
    <path clip-path="url(#p5365f7b753)" d="M 357.942045 288.430125 
L 361.188591 288.430125 
L 361.188591 288.430125 
L 357.942045 288.430125 
z
" style="fill:#0000ff;"/>
   </g>
   <g id="patch_99">
    <path clip-path="url(#p5365f7b753)" d="M 361.188591 288.430125 
L 364.435136 288.430125 
L 364.435136 288.430125 
L 361.188591 288.430125 
z
" style="fill:#0000ff;"/>
   </g>
   <g id="patch_100">
    <path clip-path="url(#p5365f7b753)" d="M 364.435136 288.430125 
L 367.681682 288.430125 
L 367.681682 288.430125 
L 364.435136 288.430125 
z
" style="fill:#0000ff;"/>
   </g>
   <g id="patch_101">
    <path clip-path="url(#p5365f7b753)" d="M 367.681682 288.430125 
L 370.928227 288.430125 
L 370.928227 288.430125 
L 367.681682 288.430125 
z
" style="fill:#0000ff;"/>
   </g>
   <g id="patch_102">
    <path clip-path="url(#p5365f7b753)" d="M 370.928227 288.430125 
L 374.174773 288.430125 
L 374.174773 286.263971 
L 370.928227 286.263971 
z
" style="fill:#0000ff;"/>
   </g>
   <g id="patch_103">
    <path clip-path="url(#p5365f7b753)" d="M 50.944734 288.430125 
L 53.781756 288.430125 
L 53.781756 277.599356 
L 50.944734 277.599356 
z
" style="fill:#0000ff;"/>
   </g>
   <g id="patch_104">
    <path clip-path="url(#p5365f7b753)" d="M 53.781756 288.430125 
L 56.618778 288.430125 
L 56.618778 281.931663 
L 53.781756 281.931663 
z
" style="fill:#0000ff;"/>
   </g>
   <g id="patch_105">
    <path clip-path="url(#p5365f7b753)" d="M 56.618778 288.430125 
L 59.4558 288.430125 
L 59.4558 262.436279 
L 56.618778 262.436279 
z
" style="fill:#0000ff;"/>
   </g>
   <g id="patch_106">
    <path clip-path="url(#p5365f7b753)" d="M 59.4558 288.430125 
L 62.292822 288.430125 
L 62.292822 245.107048 
L 59.4558 245.107048 
z
" style="fill:#0000ff;"/>
   </g>
   <g id="patch_107">
    <path clip-path="url(#p5365f7b753)" d="M 62.292822 288.430125 
L 65.129844 288.430125 
L 65.129844 232.110125 
L 62.292822 232.110125 
z
" style="fill:#0000ff;"/>
   </g>
   <g id="patch_108">
    <path clip-path="url(#p5365f7b753)" d="M 65.129844 288.430125 
L 67.966866 288.430125 
L 67.966866 247.273202 
L 65.129844 247.273202 
z
" style="fill:#0000ff;"/>
   </g>
   <g id="patch_109">
    <path clip-path="url(#p5365f7b753)" d="M 67.966866 288.430125 
L 70.803888 288.430125 
L 70.803888 247.273202 
L 67.966866 247.273202 
z
" style="fill:#0000ff;"/>
   </g>
   <g id="patch_110">
    <path clip-path="url(#p5365f7b753)" d="M 70.803888 288.430125 
L 73.64091 288.430125 
L 73.64091 264.602433 
L 70.803888 264.602433 
z
" style="fill:#0000ff;"/>
   </g>
   <g id="patch_111">
    <path clip-path="url(#p5365f7b753)" d="M 73.64091 288.430125 
L 76.477932 288.430125 
L 76.477932 262.436279 
L 73.64091 262.436279 
z
" style="fill:#0000ff;"/>
   </g>
   <g id="patch_112">
    <path clip-path="url(#p5365f7b753)" d="M 76.477932 288.430125 
L 79.314954 288.430125 
L 79.314954 266.768587 
L 76.477932 266.768587 
z
" style="fill:#0000ff;"/>
   </g>
   <g id="patch_113">
    <path clip-path="url(#p5365f7b753)" d="M 79.314954 288.430125 
L 82.151976 288.430125 
L 82.151976 268.93474 
L 79.314954 268.93474 
z
" style="fill:#0000ff;"/>
   </g>
   <g id="patch_114">
    <path clip-path="url(#p5365f7b753)" d="M 82.151976 288.430125 
L 84.988997 288.430125 
L 84.988997 255.937817 
L 82.151976 255.937817 
z
" style="fill:#0000ff;"/>
   </g>
   <g id="patch_115">
    <path clip-path="url(#p5365f7b753)" d="M 84.988997 288.430125 
L 87.826019 288.430125 
L 87.826019 273.267048 
L 84.988997 273.267048 
z
" style="fill:#0000ff;"/>
   </g>
   <g id="patch_116">
    <path clip-path="url(#p5365f7b753)" d="M 87.826019 288.430125 
L 90.663041 288.430125 
L 90.663041 266.768587 
L 87.826019 266.768587 
z
" style="fill:#0000ff;"/>
   </g>
   <g id="patch_117">
    <path clip-path="url(#p5365f7b753)" d="M 90.663041 288.430125 
L 93.500063 288.430125 
L 93.500063 286.263971 
L 90.663041 286.263971 
z
" style="fill:#0000ff;"/>
   </g>
   <g id="patch_118">
    <path clip-path="url(#p5365f7b753)" d="M 93.500063 288.430125 
L 96.337085 288.430125 
L 96.337085 271.100894 
L 93.500063 271.100894 
z
" style="fill:#0000ff;"/>
   </g>
   <g id="patch_119">
    <path clip-path="url(#p5365f7b753)" d="M 96.337085 288.430125 
L 99.174107 288.430125 
L 99.174107 279.76551 
L 96.337085 279.76551 
z
" style="fill:#0000ff;"/>
   </g>
   <g id="patch_120">
    <path clip-path="url(#p5365f7b753)" d="M 99.174107 288.430125 
L 102.011129 288.430125 
L 102.011129 275.433202 
L 99.174107 275.433202 
z
" style="fill:#0000ff;"/>
   </g>
   <g id="patch_121">
    <path clip-path="url(#p5365f7b753)" d="M 102.011129 288.430125 
L 104.848151 288.430125 
L 104.848151 281.931663 
L 102.011129 281.931663 
z
" style="fill:#0000ff;"/>
   </g>
   <g id="patch_122">
    <path clip-path="url(#p5365f7b753)" d="M 104.848151 288.430125 
L 107.685173 288.430125 
L 107.685173 277.599356 
L 104.848151 277.599356 
z
" style="fill:#0000ff;"/>
   </g>
   <g id="patch_123">
    <path clip-path="url(#p5365f7b753)" d="M 107.685173 288.430125 
L 110.522195 288.430125 
L 110.522195 277.599356 
L 107.685173 277.599356 
z
" style="fill:#0000ff;"/>
   </g>
   <g id="patch_124">
    <path clip-path="url(#p5365f7b753)" d="M 110.522195 288.430125 
L 113.359217 288.430125 
L 113.359217 273.267048 
L 110.522195 273.267048 
z
" style="fill:#0000ff;"/>
   </g>
   <g id="patch_125">
    <path clip-path="url(#p5365f7b753)" d="M 113.359217 288.430125 
L 116.196239 288.430125 
L 116.196239 281.931663 
L 113.359217 281.931663 
z
" style="fill:#0000ff;"/>
   </g>
   <g id="patch_126">
    <path clip-path="url(#p5365f7b753)" d="M 116.196239 288.430125 
L 119.03326 288.430125 
L 119.03326 286.263971 
L 116.196239 286.263971 
z
" style="fill:#0000ff;"/>
   </g>
   <g id="patch_127">
    <path clip-path="url(#p5365f7b753)" d="M 119.03326 288.430125 
L 121.870282 288.430125 
L 121.870282 286.263971 
L 119.03326 286.263971 
z
" style="fill:#0000ff;"/>
   </g>
   <g id="patch_128">
    <path clip-path="url(#p5365f7b753)" d="M 121.870282 288.430125 
L 124.707304 288.430125 
L 124.707304 286.263971 
L 121.870282 286.263971 
z
" style="fill:#0000ff;"/>
   </g>
   <g id="patch_129">
    <path clip-path="url(#p5365f7b753)" d="M 124.707304 288.430125 
L 127.544326 288.430125 
L 127.544326 286.263971 
L 124.707304 286.263971 
z
" style="fill:#0000ff;"/>
   </g>
   <g id="patch_130">
    <path clip-path="url(#p5365f7b753)" d="M 127.544326 288.430125 
L 130.381348 288.430125 
L 130.381348 279.76551 
L 127.544326 279.76551 
z
" style="fill:#0000ff;"/>
   </g>
   <g id="patch_131">
    <path clip-path="url(#p5365f7b753)" d="M 130.381348 288.430125 
L 133.21837 288.430125 
L 133.21837 284.097817 
L 130.381348 284.097817 
z
" style="fill:#0000ff;"/>
   </g>
   <g id="patch_132">
    <path clip-path="url(#p5365f7b753)" d="M 133.21837 288.430125 
L 136.055392 288.430125 
L 136.055392 279.76551 
L 133.21837 279.76551 
z
" style="fill:#0000ff;"/>
   </g>
   <g id="patch_133">
    <path clip-path="url(#p5365f7b753)" d="M 136.055392 288.430125 
L 138.892414 288.430125 
L 138.892414 284.097817 
L 136.055392 284.097817 
z
" style="fill:#0000ff;"/>
   </g>
   <g id="patch_134">
    <path clip-path="url(#p5365f7b753)" d="M 138.892414 288.430125 
L 141.729436 288.430125 
L 141.729436 284.097817 
L 138.892414 284.097817 
z
" style="fill:#0000ff;"/>
   </g>
   <g id="patch_135">
    <path clip-path="url(#p5365f7b753)" d="M 141.729436 288.430125 
L 144.566458 288.430125 
L 144.566458 284.097817 
L 141.729436 284.097817 
z
" style="fill:#0000ff;"/>
   </g>
   <g id="patch_136">
    <path clip-path="url(#p5365f7b753)" d="M 144.566458 288.430125 
L 147.40348 288.430125 
L 147.40348 284.097817 
L 144.566458 284.097817 
z
" style="fill:#0000ff;"/>
   </g>
   <g id="patch_137">
    <path clip-path="url(#p5365f7b753)" d="M 147.40348 288.430125 
L 150.240502 288.430125 
L 150.240502 288.430125 
L 147.40348 288.430125 
z
" style="fill:#0000ff;"/>
   </g>
   <g id="patch_138">
    <path clip-path="url(#p5365f7b753)" d="M 150.240502 288.430125 
L 153.077523 288.430125 
L 153.077523 288.430125 
L 150.240502 288.430125 
z
" style="fill:#0000ff;"/>
   </g>
   <g id="patch_139">
    <path clip-path="url(#p5365f7b753)" d="M 153.077523 288.430125 
L 155.914545 288.430125 
L 155.914545 286.263971 
L 153.077523 286.263971 
z
" style="fill:#0000ff;"/>
   </g>
   <g id="patch_140">
    <path clip-path="url(#p5365f7b753)" d="M 155.914545 288.430125 
L 158.751567 288.430125 
L 158.751567 286.263971 
L 155.914545 286.263971 
z
" style="fill:#0000ff;"/>
   </g>
   <g id="patch_141">
    <path clip-path="url(#p5365f7b753)" d="M 158.751567 288.430125 
L 161.588589 288.430125 
L 161.588589 286.263971 
L 158.751567 286.263971 
z
" style="fill:#0000ff;"/>
   </g>
   <g id="patch_142">
    <path clip-path="url(#p5365f7b753)" d="M 161.588589 288.430125 
L 164.425611 288.430125 
L 164.425611 286.263971 
L 161.588589 286.263971 
z
" style="fill:#0000ff;"/>
   </g>
   <g id="patch_143">
    <path clip-path="url(#p5365f7b753)" d="M 164.425611 288.430125 
L 167.262633 288.430125 
L 167.262633 288.430125 
L 164.425611 288.430125 
z
" style="fill:#0000ff;"/>
   </g>
   <g id="patch_144">
    <path clip-path="url(#p5365f7b753)" d="M 167.262633 288.430125 
L 170.099655 288.430125 
L 170.099655 288.430125 
L 167.262633 288.430125 
z
" style="fill:#0000ff;"/>
   </g>
   <g id="patch_145">
    <path clip-path="url(#p5365f7b753)" d="M 170.099655 288.430125 
L 172.936677 288.430125 
L 172.936677 288.430125 
L 170.099655 288.430125 
z
" style="fill:#0000ff;"/>
   </g>
   <g id="patch_146">
    <path clip-path="url(#p5365f7b753)" d="M 172.936677 288.430125 
L 175.773699 288.430125 
L 175.773699 288.430125 
L 172.936677 288.430125 
z
" style="fill:#0000ff;"/>
   </g>
   <g id="patch_147">
    <path clip-path="url(#p5365f7b753)" d="M 175.773699 288.430125 
L 178.610721 288.430125 
L 178.610721 286.263971 
L 175.773699 286.263971 
z
" style="fill:#0000ff;"/>
   </g>
   <g id="patch_148">
    <path clip-path="url(#p5365f7b753)" d="M 178.610721 288.430125 
L 181.447743 288.430125 
L 181.447743 288.430125 
L 178.610721 288.430125 
z
" style="fill:#0000ff;"/>
   </g>
   <g id="patch_149">
    <path clip-path="url(#p5365f7b753)" d="M 181.447743 288.430125 
L 184.284765 288.430125 
L 184.284765 288.430125 
L 181.447743 288.430125 
z
" style="fill:#0000ff;"/>
   </g>
   <g id="patch_150">
    <path clip-path="url(#p5365f7b753)" d="M 184.284765 288.430125 
L 187.121786 288.430125 
L 187.121786 288.430125 
L 184.284765 288.430125 
z
" style="fill:#0000ff;"/>
   </g>
   <g id="patch_151">
    <path clip-path="url(#p5365f7b753)" d="M 187.121786 288.430125 
L 189.958808 288.430125 
L 189.958808 288.430125 
L 187.121786 288.430125 
z
" style="fill:#0000ff;"/>
   </g>
   <g id="patch_152">
    <path clip-path="url(#p5365f7b753)" d="M 189.958808 288.430125 
L 192.79583 288.430125 
L 192.79583 286.263971 
L 189.958808 286.263971 
z
" style="fill:#0000ff;"/>
   </g>
   <g id="patch_153">
    <path clip-path="url(#p5365f7b753)" d="M 192.79583 288.430125 
L 195.632852 288.430125 
L 195.632852 288.430125 
L 192.79583 288.430125 
z
" style="fill:#0000ff;"/>
   </g>
   <g id="patch_154">
    <path clip-path="url(#p5365f7b753)" d="M 195.632852 288.430125 
L 198.469874 288.430125 
L 198.469874 288.430125 
L 195.632852 288.430125 
z
" style="fill:#0000ff;"/>
   </g>
   <g id="patch_155">
    <path clip-path="url(#p5365f7b753)" d="M 198.469874 288.430125 
L 201.306896 288.430125 
L 201.306896 286.263971 
L 198.469874 286.263971 
z
" style="fill:#0000ff;"/>
   </g>
   <g id="patch_156">
    <path clip-path="url(#p5365f7b753)" d="M 201.306896 288.430125 
L 204.143918 288.430125 
L 204.143918 288.430125 
L 201.306896 288.430125 
z
" style="fill:#0000ff;"/>
   </g>
   <g id="patch_157">
    <path clip-path="url(#p5365f7b753)" d="M 204.143918 288.430125 
L 206.98094 288.430125 
L 206.98094 286.263971 
L 204.143918 286.263971 
z
" style="fill:#0000ff;"/>
   </g>
   <g id="patch_158">
    <path clip-path="url(#p5365f7b753)" d="M 206.98094 288.430125 
L 209.817962 288.430125 
L 209.817962 288.430125 
L 206.98094 288.430125 
z
" style="fill:#0000ff;"/>
   </g>
   <g id="patch_159">
    <path clip-path="url(#p5365f7b753)" d="M 209.817962 288.430125 
L 212.654984 288.430125 
L 212.654984 288.430125 
L 209.817962 288.430125 
z
" style="fill:#0000ff;"/>
   </g>
   <g id="patch_160">
    <path clip-path="url(#p5365f7b753)" d="M 212.654984 288.430125 
L 215.492006 288.430125 
L 215.492006 288.430125 
L 212.654984 288.430125 
z
" style="fill:#0000ff;"/>
   </g>
   <g id="patch_161">
    <path clip-path="url(#p5365f7b753)" d="M 215.492006 288.430125 
L 218.329028 288.430125 
L 218.329028 288.430125 
L 215.492006 288.430125 
z
" style="fill:#0000ff;"/>
   </g>
   <g id="patch_162">
    <path clip-path="url(#p5365f7b753)" d="M 218.329028 288.430125 
L 221.166049 288.430125 
L 221.166049 288.430125 
L 218.329028 288.430125 
z
" style="fill:#0000ff;"/>
   </g>
   <g id="patch_163">
    <path clip-path="url(#p5365f7b753)" d="M 221.166049 288.430125 
L 224.003071 288.430125 
L 224.003071 288.430125 
L 221.166049 288.430125 
z
" style="fill:#0000ff;"/>
   </g>
   <g id="patch_164">
    <path clip-path="url(#p5365f7b753)" d="M 224.003071 288.430125 
L 226.840093 288.430125 
L 226.840093 288.430125 
L 224.003071 288.430125 
z
" style="fill:#0000ff;"/>
   </g>
   <g id="patch_165">
    <path clip-path="url(#p5365f7b753)" d="M 226.840093 288.430125 
L 229.677115 288.430125 
L 229.677115 288.430125 
L 226.840093 288.430125 
z
" style="fill:#0000ff;"/>
   </g>
   <g id="patch_166">
    <path clip-path="url(#p5365f7b753)" d="M 229.677115 288.430125 
L 232.514137 288.430125 
L 232.514137 286.263971 
L 229.677115 286.263971 
z
" style="fill:#0000ff;"/>
   </g>
   <g id="patch_167">
    <path clip-path="url(#p5365f7b753)" d="M 232.514137 288.430125 
L 235.351159 288.430125 
L 235.351159 286.263971 
L 232.514137 286.263971 
z
" style="fill:#0000ff;"/>
   </g>
   <g id="patch_168">
    <path clip-path="url(#p5365f7b753)" d="M 235.351159 288.430125 
L 238.188181 288.430125 
L 238.188181 288.430125 
L 235.351159 288.430125 
z
" style="fill:#0000ff;"/>
   </g>
   <g id="patch_169">
    <path clip-path="url(#p5365f7b753)" d="M 238.188181 288.430125 
L 241.025203 288.430125 
L 241.025203 288.430125 
L 238.188181 288.430125 
z
" style="fill:#0000ff;"/>
   </g>
   <g id="patch_170">
    <path clip-path="url(#p5365f7b753)" d="M 241.025203 288.430125 
L 243.862225 288.430125 
L 243.862225 288.430125 
L 241.025203 288.430125 
z
" style="fill:#0000ff;"/>
   </g>
   <g id="patch_171">
    <path clip-path="url(#p5365f7b753)" d="M 243.862225 288.430125 
L 246.699247 288.430125 
L 246.699247 288.430125 
L 243.862225 288.430125 
z
" style="fill:#0000ff;"/>
   </g>
   <g id="patch_172">
    <path clip-path="url(#p5365f7b753)" d="M 246.699247 288.430125 
L 249.536269 288.430125 
L 249.536269 288.430125 
L 246.699247 288.430125 
z
" style="fill:#0000ff;"/>
   </g>
   <g id="patch_173">
    <path clip-path="url(#p5365f7b753)" d="M 249.536269 288.430125 
L 252.373291 288.430125 
L 252.373291 288.430125 
L 249.536269 288.430125 
z
" style="fill:#0000ff;"/>
   </g>
   <g id="patch_174">
    <path clip-path="url(#p5365f7b753)" d="M 252.373291 288.430125 
L 255.210312 288.430125 
L 255.210312 288.430125 
L 252.373291 288.430125 
z
" style="fill:#0000ff;"/>
   </g>
   <g id="patch_175">
    <path clip-path="url(#p5365f7b753)" d="M 255.210312 288.430125 
L 258.047334 288.430125 
L 258.047334 288.430125 
L 255.210312 288.430125 
z
" style="fill:#0000ff;"/>
   </g>
   <g id="patch_176">
    <path clip-path="url(#p5365f7b753)" d="M 258.047334 288.430125 
L 260.884356 288.430125 
L 260.884356 288.430125 
L 258.047334 288.430125 
z
" style="fill:#0000ff;"/>
   </g>
   <g id="patch_177">
    <path clip-path="url(#p5365f7b753)" d="M 260.884356 288.430125 
L 263.721378 288.430125 
L 263.721378 288.430125 
L 260.884356 288.430125 
z
" style="fill:#0000ff;"/>
   </g>
   <g id="patch_178">
    <path clip-path="url(#p5365f7b753)" d="M 263.721378 288.430125 
L 266.5584 288.430125 
L 266.5584 288.430125 
L 263.721378 288.430125 
z
" style="fill:#0000ff;"/>
   </g>
   <g id="patch_179">
    <path clip-path="url(#p5365f7b753)" d="M 266.5584 288.430125 
L 269.395422 288.430125 
L 269.395422 288.430125 
L 266.5584 288.430125 
z
" style="fill:#0000ff;"/>
   </g>
   <g id="patch_180">
    <path clip-path="url(#p5365f7b753)" d="M 269.395422 288.430125 
L 272.232444 288.430125 
L 272.232444 288.430125 
L 269.395422 288.430125 
z
" style="fill:#0000ff;"/>
   </g>
   <g id="patch_181">
    <path clip-path="url(#p5365f7b753)" d="M 272.232444 288.430125 
L 275.069466 288.430125 
L 275.069466 288.430125 
L 272.232444 288.430125 
z
" style="fill:#0000ff;"/>
   </g>
   <g id="patch_182">
    <path clip-path="url(#p5365f7b753)" d="M 275.069466 288.430125 
L 277.906488 288.430125 
L 277.906488 288.430125 
L 275.069466 288.430125 
z
" style="fill:#0000ff;"/>
   </g>
   <g id="patch_183">
    <path clip-path="url(#p5365f7b753)" d="M 277.906488 288.430125 
L 280.74351 288.430125 
L 280.74351 288.430125 
L 277.906488 288.430125 
z
" style="fill:#0000ff;"/>
   </g>
   <g id="patch_184">
    <path clip-path="url(#p5365f7b753)" d="M 280.74351 288.430125 
L 283.580532 288.430125 
L 283.580532 288.430125 
L 280.74351 288.430125 
z
" style="fill:#0000ff;"/>
   </g>
   <g id="patch_185">
    <path clip-path="url(#p5365f7b753)" d="M 283.580532 288.430125 
L 286.417554 288.430125 
L 286.417554 288.430125 
L 283.580532 288.430125 
z
" style="fill:#0000ff;"/>
   </g>
   <g id="patch_186">
    <path clip-path="url(#p5365f7b753)" d="M 286.417554 288.430125 
L 289.254575 288.430125 
L 289.254575 288.430125 
L 286.417554 288.430125 
z
" style="fill:#0000ff;"/>
   </g>
   <g id="patch_187">
    <path clip-path="url(#p5365f7b753)" d="M 289.254575 288.430125 
L 292.091597 288.430125 
L 292.091597 288.430125 
L 289.254575 288.430125 
z
" style="fill:#0000ff;"/>
   </g>
   <g id="patch_188">
    <path clip-path="url(#p5365f7b753)" d="M 292.091597 288.430125 
L 294.928619 288.430125 
L 294.928619 288.430125 
L 292.091597 288.430125 
z
" style="fill:#0000ff;"/>
   </g>
   <g id="patch_189">
    <path clip-path="url(#p5365f7b753)" d="M 294.928619 288.430125 
L 297.765641 288.430125 
L 297.765641 288.430125 
L 294.928619 288.430125 
z
" style="fill:#0000ff;"/>
   </g>
   <g id="patch_190">
    <path clip-path="url(#p5365f7b753)" d="M 297.765641 288.430125 
L 300.602663 288.430125 
L 300.602663 288.430125 
L 297.765641 288.430125 
z
" style="fill:#0000ff;"/>
   </g>
   <g id="patch_191">
    <path clip-path="url(#p5365f7b753)" d="M 300.602663 288.430125 
L 303.439685 288.430125 
L 303.439685 288.430125 
L 300.602663 288.430125 
z
" style="fill:#0000ff;"/>
   </g>
   <g id="patch_192">
    <path clip-path="url(#p5365f7b753)" d="M 303.439685 288.430125 
L 306.276707 288.430125 
L 306.276707 288.430125 
L 303.439685 288.430125 
z
" style="fill:#0000ff;"/>
   </g>
   <g id="patch_193">
    <path clip-path="url(#p5365f7b753)" d="M 306.276707 288.430125 
L 309.113729 288.430125 
L 309.113729 286.263971 
L 306.276707 286.263971 
z
" style="fill:#0000ff;"/>
   </g>
   <g id="patch_194">
    <path clip-path="url(#p5365f7b753)" d="M 309.113729 288.430125 
L 311.950751 288.430125 
L 311.950751 288.430125 
L 309.113729 288.430125 
z
" style="fill:#0000ff;"/>
   </g>
   <g id="patch_195">
    <path clip-path="url(#p5365f7b753)" d="M 311.950751 288.430125 
L 314.787773 288.430125 
L 314.787773 284.097817 
L 311.950751 284.097817 
z
" style="fill:#0000ff;"/>
   </g>
   <g id="patch_196">
    <path clip-path="url(#p5365f7b753)" d="M 314.787773 288.430125 
L 317.624795 288.430125 
L 317.624795 288.430125 
L 314.787773 288.430125 
z
" style="fill:#0000ff;"/>
   </g>
   <g id="patch_197">
    <path clip-path="url(#p5365f7b753)" d="M 317.624795 288.430125 
L 320.461817 288.430125 
L 320.461817 288.430125 
L 317.624795 288.430125 
z
" style="fill:#0000ff;"/>
   </g>
   <g id="patch_198">
    <path clip-path="url(#p5365f7b753)" d="M 320.461817 288.430125 
L 323.298838 288.430125 
L 323.298838 288.430125 
L 320.461817 288.430125 
z
" style="fill:#0000ff;"/>
   </g>
   <g id="patch_199">
    <path clip-path="url(#p5365f7b753)" d="M 323.298838 288.430125 
L 326.13586 288.430125 
L 326.13586 288.430125 
L 323.298838 288.430125 
z
" style="fill:#0000ff;"/>
   </g>
   <g id="patch_200">
    <path clip-path="url(#p5365f7b753)" d="M 326.13586 288.430125 
L 328.972882 288.430125 
L 328.972882 288.430125 
L 326.13586 288.430125 
z
" style="fill:#0000ff;"/>
   </g>
   <g id="patch_201">
    <path clip-path="url(#p5365f7b753)" d="M 328.972882 288.430125 
L 331.809904 288.430125 
L 331.809904 288.430125 
L 328.972882 288.430125 
z
" style="fill:#0000ff;"/>
   </g>
   <g id="patch_202">
    <path clip-path="url(#p5365f7b753)" d="M 331.809904 288.430125 
L 334.646926 288.430125 
L 334.646926 286.263971 
L 331.809904 286.263971 
z
" style="fill:#0000ff;"/>
   </g>
   <g id="matplotlib.axis_1">
    <g id="xtick_1">
     <g id="line2d_1">
      <path clip-path="url(#p5365f7b753)" d="M 49.01544 288.430125 
L 49.01544 22.318125 
" style="fill:none;stroke:#b0b0b0;stroke-linecap:square;stroke-width:0.8;"/>
     </g>
     <g id="line2d_2">
      <defs>
       <path d="M 0 0 
L 0 3.5 
" id="m2623734f3b" style="stroke:#000000;stroke-width:0.8;"/>
      </defs>
      <g>
       <use style="stroke:#000000;stroke-width:0.8;" x="49.01544" xlink:href="#m2623734f3b" y="288.430125"/>
      </g>
     </g>
     <g id="text_1">
      <!-- 0 -->
      <g transform="translate(45.83419 303.028562)scale(0.1 -0.1)">
       <defs>
        <path d="M 2034 4250 
Q 1547 4250 1301 3770 
Q 1056 3291 1056 2328 
Q 1056 1369 1301 889 
Q 1547 409 2034 409 
Q 2525 409 2770 889 
Q 3016 1369 3016 2328 
Q 3016 3291 2770 3770 
Q 2525 4250 2034 4250 
z
M 2034 4750 
Q 2819 4750 3233 4129 
Q 3647 3509 3647 2328 
Q 3647 1150 3233 529 
Q 2819 -91 2034 -91 
Q 1250 -91 836 529 
Q 422 1150 422 2328 
Q 422 3509 836 4129 
Q 1250 4750 2034 4750 
z
" id="DejaVuSans-30" transform="scale(0.015625)"/>
       </defs>
       <use xlink:href="#DejaVuSans-30"/>
      </g>
     </g>
    </g>
    <g id="xtick_2">
     <g id="line2d_3">
      <path clip-path="url(#p5365f7b753)" d="M 114.257987 288.430125 
L 114.257987 22.318125 
" style="fill:none;stroke:#b0b0b0;stroke-linecap:square;stroke-width:0.8;"/>
     </g>
     <g id="line2d_4">
      <g>
       <use style="stroke:#000000;stroke-width:0.8;" x="114.257987" xlink:href="#m2623734f3b" y="288.430125"/>
      </g>
     </g>
     <g id="text_2">
      <!-- 5000 -->
      <g transform="translate(101.532987 303.028562)scale(0.1 -0.1)">
       <defs>
        <path d="M 691 4666 
L 3169 4666 
L 3169 4134 
L 1269 4134 
L 1269 2991 
Q 1406 3038 1543 3061 
Q 1681 3084 1819 3084 
Q 2600 3084 3056 2656 
Q 3513 2228 3513 1497 
Q 3513 744 3044 326 
Q 2575 -91 1722 -91 
Q 1428 -91 1123 -41 
Q 819 9 494 109 
L 494 744 
Q 775 591 1075 516 
Q 1375 441 1709 441 
Q 2250 441 2565 725 
Q 2881 1009 2881 1497 
Q 2881 1984 2565 2268 
Q 2250 2553 1709 2553 
Q 1456 2553 1204 2497 
Q 953 2441 691 2322 
L 691 4666 
z
" id="DejaVuSans-35" transform="scale(0.015625)"/>
       </defs>
       <use xlink:href="#DejaVuSans-35"/>
       <use x="63.623047" xlink:href="#DejaVuSans-30"/>
       <use x="127.246094" xlink:href="#DejaVuSans-30"/>
       <use x="190.869141" xlink:href="#DejaVuSans-30"/>
      </g>
     </g>
    </g>
    <g id="xtick_3">
     <g id="line2d_5">
      <path clip-path="url(#p5365f7b753)" d="M 179.500535 288.430125 
L 179.500535 22.318125 
" style="fill:none;stroke:#b0b0b0;stroke-linecap:square;stroke-width:0.8;"/>
     </g>
     <g id="line2d_6">
      <g>
       <use style="stroke:#000000;stroke-width:0.8;" x="179.500535" xlink:href="#m2623734f3b" y="288.430125"/>
      </g>
     </g>
     <g id="text_3">
      <!-- 10000 -->
      <g transform="translate(163.594285 303.028562)scale(0.1 -0.1)">
       <defs>
        <path d="M 794 531 
L 1825 531 
L 1825 4091 
L 703 3866 
L 703 4441 
L 1819 4666 
L 2450 4666 
L 2450 531 
L 3481 531 
L 3481 0 
L 794 0 
L 794 531 
z
" id="DejaVuSans-31" transform="scale(0.015625)"/>
       </defs>
       <use xlink:href="#DejaVuSans-31"/>
       <use x="63.623047" xlink:href="#DejaVuSans-30"/>
       <use x="127.246094" xlink:href="#DejaVuSans-30"/>
       <use x="190.869141" xlink:href="#DejaVuSans-30"/>
       <use x="254.492188" xlink:href="#DejaVuSans-30"/>
      </g>
     </g>
    </g>
    <g id="xtick_4">
     <g id="line2d_7">
      <path clip-path="url(#p5365f7b753)" d="M 244.743082 288.430125 
L 244.743082 22.318125 
" style="fill:none;stroke:#b0b0b0;stroke-linecap:square;stroke-width:0.8;"/>
     </g>
     <g id="line2d_8">
      <g>
       <use style="stroke:#000000;stroke-width:0.8;" x="244.743082" xlink:href="#m2623734f3b" y="288.430125"/>
      </g>
     </g>
     <g id="text_4">
      <!-- 15000 -->
      <g transform="translate(228.836832 303.028562)scale(0.1 -0.1)">
       <use xlink:href="#DejaVuSans-31"/>
       <use x="63.623047" xlink:href="#DejaVuSans-35"/>
       <use x="127.246094" xlink:href="#DejaVuSans-30"/>
       <use x="190.869141" xlink:href="#DejaVuSans-30"/>
       <use x="254.492188" xlink:href="#DejaVuSans-30"/>
      </g>
     </g>
    </g>
    <g id="xtick_5">
     <g id="line2d_9">
      <path clip-path="url(#p5365f7b753)" d="M 309.985629 288.430125 
L 309.985629 22.318125 
" style="fill:none;stroke:#b0b0b0;stroke-linecap:square;stroke-width:0.8;"/>
     </g>
     <g id="line2d_10">
      <g>
       <use style="stroke:#000000;stroke-width:0.8;" x="309.985629" xlink:href="#m2623734f3b" y="288.430125"/>
      </g>
     </g>
     <g id="text_5">
      <!-- 20000 -->
      <g transform="translate(294.079379 303.028562)scale(0.1 -0.1)">
       <defs>
        <path d="M 1228 531 
L 3431 531 
L 3431 0 
L 469 0 
L 469 531 
Q 828 903 1448 1529 
Q 2069 2156 2228 2338 
Q 2531 2678 2651 2914 
Q 2772 3150 2772 3378 
Q 2772 3750 2511 3984 
Q 2250 4219 1831 4219 
Q 1534 4219 1204 4116 
Q 875 4013 500 3803 
L 500 4441 
Q 881 4594 1212 4672 
Q 1544 4750 1819 4750 
Q 2544 4750 2975 4387 
Q 3406 4025 3406 3419 
Q 3406 3131 3298 2873 
Q 3191 2616 2906 2266 
Q 2828 2175 2409 1742 
Q 1991 1309 1228 531 
z
" id="DejaVuSans-32" transform="scale(0.015625)"/>
       </defs>
       <use xlink:href="#DejaVuSans-32"/>
       <use x="63.623047" xlink:href="#DejaVuSans-30"/>
       <use x="127.246094" xlink:href="#DejaVuSans-30"/>
       <use x="190.869141" xlink:href="#DejaVuSans-30"/>
       <use x="254.492188" xlink:href="#DejaVuSans-30"/>
      </g>
     </g>
    </g>
    <g id="xtick_6">
     <g id="line2d_11">
      <path clip-path="url(#p5365f7b753)" d="M 375.228176 288.430125 
L 375.228176 22.318125 
" style="fill:none;stroke:#b0b0b0;stroke-linecap:square;stroke-width:0.8;"/>
     </g>
     <g id="line2d_12">
      <g>
       <use style="stroke:#000000;stroke-width:0.8;" x="375.228176" xlink:href="#m2623734f3b" y="288.430125"/>
      </g>
     </g>
     <g id="text_6">
      <!-- 25000 -->
      <g transform="translate(359.321926 303.028562)scale(0.1 -0.1)">
       <use xlink:href="#DejaVuSans-32"/>
       <use x="63.623047" xlink:href="#DejaVuSans-35"/>
       <use x="127.246094" xlink:href="#DejaVuSans-30"/>
       <use x="190.869141" xlink:href="#DejaVuSans-30"/>
       <use x="254.492188" xlink:href="#DejaVuSans-30"/>
      </g>
     </g>
    </g>
   </g>
   <g id="matplotlib.axis_2">
    <g id="ytick_1">
     <g id="line2d_13">
      <path clip-path="url(#p5365f7b753)" d="M 33.2875 288.430125 
L 390.4075 288.430125 
" style="fill:none;stroke:#b0b0b0;stroke-linecap:square;stroke-width:0.8;"/>
     </g>
     <g id="line2d_14">
      <defs>
       <path d="M 0 0 
L -3.5 0 
" id="mbe3615052c" style="stroke:#000000;stroke-width:0.8;"/>
      </defs>
      <g>
       <use style="stroke:#000000;stroke-width:0.8;" x="33.2875" xlink:href="#mbe3615052c" y="288.430125"/>
      </g>
     </g>
     <g id="text_7">
      <!-- 0 -->
      <g transform="translate(19.925 292.229344)scale(0.1 -0.1)">
       <use xlink:href="#DejaVuSans-30"/>
      </g>
     </g>
    </g>
    <g id="ytick_2">
     <g id="line2d_15">
      <path clip-path="url(#p5365f7b753)" d="M 33.2875 245.107048 
L 390.4075 245.107048 
" style="fill:none;stroke:#b0b0b0;stroke-linecap:square;stroke-width:0.8;"/>
     </g>
     <g id="line2d_16">
      <g>
       <use style="stroke:#000000;stroke-width:0.8;" x="33.2875" xlink:href="#mbe3615052c" y="245.107048"/>
      </g>
     </g>
     <g id="text_8">
      <!-- 20 -->
      <g transform="translate(13.5625 248.906267)scale(0.1 -0.1)">
       <use xlink:href="#DejaVuSans-32"/>
       <use x="63.623047" xlink:href="#DejaVuSans-30"/>
      </g>
     </g>
    </g>
    <g id="ytick_3">
     <g id="line2d_17">
      <path clip-path="url(#p5365f7b753)" d="M 33.2875 201.783971 
L 390.4075 201.783971 
" style="fill:none;stroke:#b0b0b0;stroke-linecap:square;stroke-width:0.8;"/>
     </g>
     <g id="line2d_18">
      <g>
       <use style="stroke:#000000;stroke-width:0.8;" x="33.2875" xlink:href="#mbe3615052c" y="201.783971"/>
      </g>
     </g>
     <g id="text_9">
      <!-- 40 -->
      <g transform="translate(13.5625 205.58319)scale(0.1 -0.1)">
       <defs>
        <path d="M 2419 4116 
L 825 1625 
L 2419 1625 
L 2419 4116 
z
M 2253 4666 
L 3047 4666 
L 3047 1625 
L 3713 1625 
L 3713 1100 
L 3047 1100 
L 3047 0 
L 2419 0 
L 2419 1100 
L 313 1100 
L 313 1709 
L 2253 4666 
z
" id="DejaVuSans-34" transform="scale(0.015625)"/>
       </defs>
       <use xlink:href="#DejaVuSans-34"/>
       <use x="63.623047" xlink:href="#DejaVuSans-30"/>
      </g>
     </g>
    </g>
    <g id="ytick_4">
     <g id="line2d_19">
      <path clip-path="url(#p5365f7b753)" d="M 33.2875 158.460894 
L 390.4075 158.460894 
" style="fill:none;stroke:#b0b0b0;stroke-linecap:square;stroke-width:0.8;"/>
     </g>
     <g id="line2d_20">
      <g>
       <use style="stroke:#000000;stroke-width:0.8;" x="33.2875" xlink:href="#mbe3615052c" y="158.460894"/>
      </g>
     </g>
     <g id="text_10">
      <!-- 60 -->
      <g transform="translate(13.5625 162.260113)scale(0.1 -0.1)">
       <defs>
        <path d="M 2113 2584 
Q 1688 2584 1439 2293 
Q 1191 2003 1191 1497 
Q 1191 994 1439 701 
Q 1688 409 2113 409 
Q 2538 409 2786 701 
Q 3034 994 3034 1497 
Q 3034 2003 2786 2293 
Q 2538 2584 2113 2584 
z
M 3366 4563 
L 3366 3988 
Q 3128 4100 2886 4159 
Q 2644 4219 2406 4219 
Q 1781 4219 1451 3797 
Q 1122 3375 1075 2522 
Q 1259 2794 1537 2939 
Q 1816 3084 2150 3084 
Q 2853 3084 3261 2657 
Q 3669 2231 3669 1497 
Q 3669 778 3244 343 
Q 2819 -91 2113 -91 
Q 1303 -91 875 529 
Q 447 1150 447 2328 
Q 447 3434 972 4092 
Q 1497 4750 2381 4750 
Q 2619 4750 2861 4703 
Q 3103 4656 3366 4563 
z
" id="DejaVuSans-36" transform="scale(0.015625)"/>
       </defs>
       <use xlink:href="#DejaVuSans-36"/>
       <use x="63.623047" xlink:href="#DejaVuSans-30"/>
      </g>
     </g>
    </g>
    <g id="ytick_5">
     <g id="line2d_21">
      <path clip-path="url(#p5365f7b753)" d="M 33.2875 115.137817 
L 390.4075 115.137817 
" style="fill:none;stroke:#b0b0b0;stroke-linecap:square;stroke-width:0.8;"/>
     </g>
     <g id="line2d_22">
      <g>
       <use style="stroke:#000000;stroke-width:0.8;" x="33.2875" xlink:href="#mbe3615052c" y="115.137817"/>
      </g>
     </g>
     <g id="text_11">
      <!-- 80 -->
      <g transform="translate(13.5625 118.937036)scale(0.1 -0.1)">
       <defs>
        <path d="M 2034 2216 
Q 1584 2216 1326 1975 
Q 1069 1734 1069 1313 
Q 1069 891 1326 650 
Q 1584 409 2034 409 
Q 2484 409 2743 651 
Q 3003 894 3003 1313 
Q 3003 1734 2745 1975 
Q 2488 2216 2034 2216 
z
M 1403 2484 
Q 997 2584 770 2862 
Q 544 3141 544 3541 
Q 544 4100 942 4425 
Q 1341 4750 2034 4750 
Q 2731 4750 3128 4425 
Q 3525 4100 3525 3541 
Q 3525 3141 3298 2862 
Q 3072 2584 2669 2484 
Q 3125 2378 3379 2068 
Q 3634 1759 3634 1313 
Q 3634 634 3220 271 
Q 2806 -91 2034 -91 
Q 1263 -91 848 271 
Q 434 634 434 1313 
Q 434 1759 690 2068 
Q 947 2378 1403 2484 
z
M 1172 3481 
Q 1172 3119 1398 2916 
Q 1625 2713 2034 2713 
Q 2441 2713 2670 2916 
Q 2900 3119 2900 3481 
Q 2900 3844 2670 4047 
Q 2441 4250 2034 4250 
Q 1625 4250 1398 4047 
Q 1172 3844 1172 3481 
z
" id="DejaVuSans-38" transform="scale(0.015625)"/>
       </defs>
       <use xlink:href="#DejaVuSans-38"/>
       <use x="63.623047" xlink:href="#DejaVuSans-30"/>
      </g>
     </g>
    </g>
    <g id="ytick_6">
     <g id="line2d_23">
      <path clip-path="url(#p5365f7b753)" d="M 33.2875 71.81474 
L 390.4075 71.81474 
" style="fill:none;stroke:#b0b0b0;stroke-linecap:square;stroke-width:0.8;"/>
     </g>
     <g id="line2d_24">
      <g>
       <use style="stroke:#000000;stroke-width:0.8;" x="33.2875" xlink:href="#mbe3615052c" y="71.81474"/>
      </g>
     </g>
     <g id="text_12">
      <!-- 100 -->
      <g transform="translate(7.2 75.613959)scale(0.1 -0.1)">
       <use xlink:href="#DejaVuSans-31"/>
       <use x="63.623047" xlink:href="#DejaVuSans-30"/>
       <use x="127.246094" xlink:href="#DejaVuSans-30"/>
      </g>
     </g>
    </g>
    <g id="ytick_7">
     <g id="line2d_25">
      <path clip-path="url(#p5365f7b753)" d="M 33.2875 28.491663 
L 390.4075 28.491663 
" style="fill:none;stroke:#b0b0b0;stroke-linecap:square;stroke-width:0.8;"/>
     </g>
     <g id="line2d_26">
      <g>
       <use style="stroke:#000000;stroke-width:0.8;" x="33.2875" xlink:href="#mbe3615052c" y="28.491663"/>
      </g>
     </g>
     <g id="text_13">
      <!-- 120 -->
      <g transform="translate(7.2 32.290882)scale(0.1 -0.1)">
       <use xlink:href="#DejaVuSans-31"/>
       <use x="63.623047" xlink:href="#DejaVuSans-32"/>
       <use x="127.246094" xlink:href="#DejaVuSans-30"/>
      </g>
     </g>
    </g>
   </g>
   <g id="patch_203">
    <path d="M 33.2875 288.430125 
L 33.2875 22.318125 
" style="fill:none;stroke:#000000;stroke-linecap:square;stroke-linejoin:miter;stroke-width:0.8;"/>
   </g>
   <g id="patch_204">
    <path d="M 390.4075 288.430125 
L 390.4075 22.318125 
" style="fill:none;stroke:#000000;stroke-linecap:square;stroke-linejoin:miter;stroke-width:0.8;"/>
   </g>
   <g id="patch_205">
    <path d="M 33.2875 288.430125 
L 390.4075 288.430125 
" style="fill:none;stroke:#000000;stroke-linecap:square;stroke-linejoin:miter;stroke-width:0.8;"/>
   </g>
   <g id="patch_206">
    <path d="M 33.2875 22.318125 
L 390.4075 22.318125 
" style="fill:none;stroke:#000000;stroke-linecap:square;stroke-linejoin:miter;stroke-width:0.8;"/>
   </g>
   <g id="text_14">
    <!-- Density of samples -->
    <g transform="translate(154.499688 16.318125)scale(0.12 -0.12)">
     <defs>
      <path d="M 1259 4147 
L 1259 519 
L 2022 519 
Q 2988 519 3436 956 
Q 3884 1394 3884 2338 
Q 3884 3275 3436 3711 
Q 2988 4147 2022 4147 
L 1259 4147 
z
M 628 4666 
L 1925 4666 
Q 3281 4666 3915 4102 
Q 4550 3538 4550 2338 
Q 4550 1131 3912 565 
Q 3275 0 1925 0 
L 628 0 
L 628 4666 
z
" id="DejaVuSans-44" transform="scale(0.015625)"/>
      <path d="M 3597 1894 
L 3597 1613 
L 953 1613 
Q 991 1019 1311 708 
Q 1631 397 2203 397 
Q 2534 397 2845 478 
Q 3156 559 3463 722 
L 3463 178 
Q 3153 47 2828 -22 
Q 2503 -91 2169 -91 
Q 1331 -91 842 396 
Q 353 884 353 1716 
Q 353 2575 817 3079 
Q 1281 3584 2069 3584 
Q 2775 3584 3186 3129 
Q 3597 2675 3597 1894 
z
M 3022 2063 
Q 3016 2534 2758 2815 
Q 2500 3097 2075 3097 
Q 1594 3097 1305 2825 
Q 1016 2553 972 2059 
L 3022 2063 
z
" id="DejaVuSans-65" transform="scale(0.015625)"/>
      <path d="M 3513 2113 
L 3513 0 
L 2938 0 
L 2938 2094 
Q 2938 2591 2744 2837 
Q 2550 3084 2163 3084 
Q 1697 3084 1428 2787 
Q 1159 2491 1159 1978 
L 1159 0 
L 581 0 
L 581 3500 
L 1159 3500 
L 1159 2956 
Q 1366 3272 1645 3428 
Q 1925 3584 2291 3584 
Q 2894 3584 3203 3211 
Q 3513 2838 3513 2113 
z
" id="DejaVuSans-6e" transform="scale(0.015625)"/>
      <path d="M 2834 3397 
L 2834 2853 
Q 2591 2978 2328 3040 
Q 2066 3103 1784 3103 
Q 1356 3103 1142 2972 
Q 928 2841 928 2578 
Q 928 2378 1081 2264 
Q 1234 2150 1697 2047 
L 1894 2003 
Q 2506 1872 2764 1633 
Q 3022 1394 3022 966 
Q 3022 478 2636 193 
Q 2250 -91 1575 -91 
Q 1294 -91 989 -36 
Q 684 19 347 128 
L 347 722 
Q 666 556 975 473 
Q 1284 391 1588 391 
Q 1994 391 2212 530 
Q 2431 669 2431 922 
Q 2431 1156 2273 1281 
Q 2116 1406 1581 1522 
L 1381 1569 
Q 847 1681 609 1914 
Q 372 2147 372 2553 
Q 372 3047 722 3315 
Q 1072 3584 1716 3584 
Q 2034 3584 2315 3537 
Q 2597 3491 2834 3397 
z
" id="DejaVuSans-73" transform="scale(0.015625)"/>
      <path d="M 603 3500 
L 1178 3500 
L 1178 0 
L 603 0 
L 603 3500 
z
M 603 4863 
L 1178 4863 
L 1178 4134 
L 603 4134 
L 603 4863 
z
" id="DejaVuSans-69" transform="scale(0.015625)"/>
      <path d="M 1172 4494 
L 1172 3500 
L 2356 3500 
L 2356 3053 
L 1172 3053 
L 1172 1153 
Q 1172 725 1289 603 
Q 1406 481 1766 481 
L 2356 481 
L 2356 0 
L 1766 0 
Q 1100 0 847 248 
Q 594 497 594 1153 
L 594 3053 
L 172 3053 
L 172 3500 
L 594 3500 
L 594 4494 
L 1172 4494 
z
" id="DejaVuSans-74" transform="scale(0.015625)"/>
      <path d="M 2059 -325 
Q 1816 -950 1584 -1140 
Q 1353 -1331 966 -1331 
L 506 -1331 
L 506 -850 
L 844 -850 
Q 1081 -850 1212 -737 
Q 1344 -625 1503 -206 
L 1606 56 
L 191 3500 
L 800 3500 
L 1894 763 
L 2988 3500 
L 3597 3500 
L 2059 -325 
z
" id="DejaVuSans-79" transform="scale(0.015625)"/>
      <path id="DejaVuSans-20" transform="scale(0.015625)"/>
      <path d="M 1959 3097 
Q 1497 3097 1228 2736 
Q 959 2375 959 1747 
Q 959 1119 1226 758 
Q 1494 397 1959 397 
Q 2419 397 2687 759 
Q 2956 1122 2956 1747 
Q 2956 2369 2687 2733 
Q 2419 3097 1959 3097 
z
M 1959 3584 
Q 2709 3584 3137 3096 
Q 3566 2609 3566 1747 
Q 3566 888 3137 398 
Q 2709 -91 1959 -91 
Q 1206 -91 779 398 
Q 353 888 353 1747 
Q 353 2609 779 3096 
Q 1206 3584 1959 3584 
z
" id="DejaVuSans-6f" transform="scale(0.015625)"/>
      <path d="M 2375 4863 
L 2375 4384 
L 1825 4384 
Q 1516 4384 1395 4259 
Q 1275 4134 1275 3809 
L 1275 3500 
L 2222 3500 
L 2222 3053 
L 1275 3053 
L 1275 0 
L 697 0 
L 697 3053 
L 147 3053 
L 147 3500 
L 697 3500 
L 697 3744 
Q 697 4328 969 4595 
Q 1241 4863 1831 4863 
L 2375 4863 
z
" id="DejaVuSans-66" transform="scale(0.015625)"/>
      <path d="M 2194 1759 
Q 1497 1759 1228 1600 
Q 959 1441 959 1056 
Q 959 750 1161 570 
Q 1363 391 1709 391 
Q 2188 391 2477 730 
Q 2766 1069 2766 1631 
L 2766 1759 
L 2194 1759 
z
M 3341 1997 
L 3341 0 
L 2766 0 
L 2766 531 
Q 2569 213 2275 61 
Q 1981 -91 1556 -91 
Q 1019 -91 701 211 
Q 384 513 384 1019 
Q 384 1609 779 1909 
Q 1175 2209 1959 2209 
L 2766 2209 
L 2766 2266 
Q 2766 2663 2505 2880 
Q 2244 3097 1772 3097 
Q 1472 3097 1187 3025 
Q 903 2953 641 2809 
L 641 3341 
Q 956 3463 1253 3523 
Q 1550 3584 1831 3584 
Q 2591 3584 2966 3190 
Q 3341 2797 3341 1997 
z
" id="DejaVuSans-61" transform="scale(0.015625)"/>
      <path d="M 3328 2828 
Q 3544 3216 3844 3400 
Q 4144 3584 4550 3584 
Q 5097 3584 5394 3201 
Q 5691 2819 5691 2113 
L 5691 0 
L 5113 0 
L 5113 2094 
Q 5113 2597 4934 2840 
Q 4756 3084 4391 3084 
Q 3944 3084 3684 2787 
Q 3425 2491 3425 1978 
L 3425 0 
L 2847 0 
L 2847 2094 
Q 2847 2600 2669 2842 
Q 2491 3084 2119 3084 
Q 1678 3084 1418 2786 
Q 1159 2488 1159 1978 
L 1159 0 
L 581 0 
L 581 3500 
L 1159 3500 
L 1159 2956 
Q 1356 3278 1631 3431 
Q 1906 3584 2284 3584 
Q 2666 3584 2933 3390 
Q 3200 3197 3328 2828 
z
" id="DejaVuSans-6d" transform="scale(0.015625)"/>
      <path d="M 1159 525 
L 1159 -1331 
L 581 -1331 
L 581 3500 
L 1159 3500 
L 1159 2969 
Q 1341 3281 1617 3432 
Q 1894 3584 2278 3584 
Q 2916 3584 3314 3078 
Q 3713 2572 3713 1747 
Q 3713 922 3314 415 
Q 2916 -91 2278 -91 
Q 1894 -91 1617 61 
Q 1341 213 1159 525 
z
M 3116 1747 
Q 3116 2381 2855 2742 
Q 2594 3103 2138 3103 
Q 1681 3103 1420 2742 
Q 1159 2381 1159 1747 
Q 1159 1113 1420 752 
Q 1681 391 2138 391 
Q 2594 391 2855 752 
Q 3116 1113 3116 1747 
z
" id="DejaVuSans-70" transform="scale(0.015625)"/>
      <path d="M 603 4863 
L 1178 4863 
L 1178 0 
L 603 0 
L 603 4863 
z
" id="DejaVuSans-6c" transform="scale(0.015625)"/>
     </defs>
     <use xlink:href="#DejaVuSans-44"/>
     <use x="77.001953" xlink:href="#DejaVuSans-65"/>
     <use x="138.525391" xlink:href="#DejaVuSans-6e"/>
     <use x="201.904297" xlink:href="#DejaVuSans-73"/>
     <use x="254.003906" xlink:href="#DejaVuSans-69"/>
     <use x="281.787109" xlink:href="#DejaVuSans-74"/>
     <use x="320.996094" xlink:href="#DejaVuSans-79"/>
     <use x="380.175781" xlink:href="#DejaVuSans-20"/>
     <use x="411.962891" xlink:href="#DejaVuSans-6f"/>
     <use x="473.144531" xlink:href="#DejaVuSans-66"/>
     <use x="508.349609" xlink:href="#DejaVuSans-20"/>
     <use x="540.136719" xlink:href="#DejaVuSans-73"/>
     <use x="592.236328" xlink:href="#DejaVuSans-61"/>
     <use x="653.515625" xlink:href="#DejaVuSans-6d"/>
     <use x="750.927734" xlink:href="#DejaVuSans-70"/>
     <use x="814.404297" xlink:href="#DejaVuSans-6c"/>
     <use x="842.1875" xlink:href="#DejaVuSans-65"/>
     <use x="903.710938" xlink:href="#DejaVuSans-73"/>
    </g>
   </g>
  </g>
 </g>
 <defs>
  <clipPath id="p5365f7b753">
   <rect height="266.112" width="357.12" x="33.2875" y="22.318125"/>
  </clipPath>
 </defs>
</svg>
