<?xml version="1.0" encoding="utf-8" standalone="no"?>
<!DOCTYPE svg PUBLIC "-//W3C//DTD SVG 1.1//EN"
  "http://www.w3.org/Graphics/SVG/1.1/DTD/svg11.dtd">
<svg height="325.745625pt" version="1.1" viewBox="0 0 391.245 325.745625" width="391.245pt" xmlns="http://www.w3.org/2000/svg" xmlns:xlink="http://www.w3.org/1999/xlink">
 <metadata>
  <rdf:RDF xmlns:cc="http://creativecommons.org/ns#" xmlns:dc="http://purl.org/dc/elements/1.1/" xmlns:rdf="http://www.w3.org/1999/02/22-rdf-syntax-ns#">
   <cc:Work>
    <dc:type rdf:resource="http://purl.org/dc/dcmitype/StillImage"/>
    <dc:date>2021-05-03T18:51:11.210398</dc:date>
    <dc:format>image/svg+xml</dc:format>
    <dc:creator>
     <cc:Agent>
      <dc:title>Matplotlib v3.4.1, https://matplotlib.org/</dc:title>
     </cc:Agent>
    </dc:creator>
   </cc:Work>
  </rdf:RDF>
 </metadata>
 <defs>
  <style type="text/css">*{stroke-linecap:butt;stroke-linejoin:round;}</style>
 </defs>
 <g id="figure_1">
  <g id="patch_1">
   <path d="M 0 325.745625 
L 391.245 325.745625 
L 391.245 0 
L 0 0 
z
" style="fill:#ffffff;"/>
  </g>
  <g id="axes_1">
   <g id="patch_2">
    <path d="M 26.925 301.8675 
L 384.045 301.8675 
L 384.045 35.7555 
L 26.925 35.7555 
z
" style="fill:#ffffff;"/>
   </g>
   <g id="patch_3">
    <path clip-path="url(#padea8f2159)" d="M 43.157727 301.8675 
L 46.404273 301.8675 
L 46.404273 282.372115 
L 43.157727 282.372115 
z
" style="fill:#0000ff;"/>
   </g>
   <g id="patch_4">
    <path clip-path="url(#padea8f2159)" d="M 46.404273 301.8675 
L 49.650818 301.8675 
L 49.650818 301.8675 
L 46.404273 301.8675 
z
" style="fill:#0000ff;"/>
   </g>
   <g id="patch_5">
    <path clip-path="url(#padea8f2159)" d="M 49.650818 301.8675 
L 52.897364 301.8675 
L 52.897364 301.8675 
L 49.650818 301.8675 
z
" style="fill:#0000ff;"/>
   </g>
   <g id="patch_6">
    <path clip-path="url(#padea8f2159)" d="M 52.897364 301.8675 
L 56.143909 301.8675 
L 56.143909 262.876731 
L 52.897364 262.876731 
z
" style="fill:#0000ff;"/>
   </g>
   <g id="patch_7">
    <path clip-path="url(#padea8f2159)" d="M 56.143909 301.8675 
L 59.390455 301.8675 
L 59.390455 282.372115 
L 56.143909 282.372115 
z
" style="fill:#0000ff;"/>
   </g>
   <g id="patch_8">
    <path clip-path="url(#padea8f2159)" d="M 59.390455 301.8675 
L 62.637 301.8675 
L 62.637 282.372115 
L 59.390455 282.372115 
z
" style="fill:#0000ff;"/>
   </g>
   <g id="patch_9">
    <path clip-path="url(#padea8f2159)" d="M 62.637 301.8675 
L 65.883545 301.8675 
L 65.883545 301.8675 
L 62.637 301.8675 
z
" style="fill:#0000ff;"/>
   </g>
   <g id="patch_10">
    <path clip-path="url(#padea8f2159)" d="M 65.883545 301.8675 
L 69.130091 301.8675 
L 69.130091 282.372115 
L 65.883545 282.372115 
z
" style="fill:#0000ff;"/>
   </g>
   <g id="patch_11">
    <path clip-path="url(#padea8f2159)" d="M 69.130091 301.8675 
L 72.376636 301.8675 
L 72.376636 282.372115 
L 69.130091 282.372115 
z
" style="fill:#0000ff;"/>
   </g>
   <g id="patch_12">
    <path clip-path="url(#padea8f2159)" d="M 72.376636 301.8675 
L 75.623182 301.8675 
L 75.623182 282.372115 
L 72.376636 282.372115 
z
" style="fill:#0000ff;"/>
   </g>
   <g id="patch_13">
    <path clip-path="url(#padea8f2159)" d="M 75.623182 301.8675 
L 78.869727 301.8675 
L 78.869727 301.8675 
L 75.623182 301.8675 
z
" style="fill:#0000ff;"/>
   </g>
   <g id="patch_14">
    <path clip-path="url(#padea8f2159)" d="M 78.869727 301.8675 
L 82.116273 301.8675 
L 82.116273 262.876731 
L 78.869727 262.876731 
z
" style="fill:#0000ff;"/>
   </g>
   <g id="patch_15">
    <path clip-path="url(#padea8f2159)" d="M 82.116273 301.8675 
L 85.362818 301.8675 
L 85.362818 301.8675 
L 82.116273 301.8675 
z
" style="fill:#0000ff;"/>
   </g>
   <g id="patch_16">
    <path clip-path="url(#padea8f2159)" d="M 85.362818 301.8675 
L 88.609364 301.8675 
L 88.609364 282.372115 
L 85.362818 282.372115 
z
" style="fill:#0000ff;"/>
   </g>
   <g id="patch_17">
    <path clip-path="url(#padea8f2159)" d="M 88.609364 301.8675 
L 91.855909 301.8675 
L 91.855909 262.876731 
L 88.609364 262.876731 
z
" style="fill:#0000ff;"/>
   </g>
   <g id="patch_18">
    <path clip-path="url(#padea8f2159)" d="M 91.855909 301.8675 
L 95.102455 301.8675 
L 95.102455 243.381346 
L 91.855909 243.381346 
z
" style="fill:#0000ff;"/>
   </g>
   <g id="patch_19">
    <path clip-path="url(#padea8f2159)" d="M 95.102455 301.8675 
L 98.349 301.8675 
L 98.349 243.381346 
L 95.102455 243.381346 
z
" style="fill:#0000ff;"/>
   </g>
   <g id="patch_20">
    <path clip-path="url(#padea8f2159)" d="M 98.349 301.8675 
L 101.595545 301.8675 
L 101.595545 243.381346 
L 98.349 243.381346 
z
" style="fill:#0000ff;"/>
   </g>
   <g id="patch_21">
    <path clip-path="url(#padea8f2159)" d="M 101.595545 301.8675 
L 104.842091 301.8675 
L 104.842091 223.885962 
L 101.595545 223.885962 
z
" style="fill:#0000ff;"/>
   </g>
   <g id="patch_22">
    <path clip-path="url(#padea8f2159)" d="M 104.842091 301.8675 
L 108.088636 301.8675 
L 108.088636 243.381346 
L 104.842091 243.381346 
z
" style="fill:#0000ff;"/>
   </g>
   <g id="patch_23">
    <path clip-path="url(#padea8f2159)" d="M 108.088636 301.8675 
L 111.335182 301.8675 
L 111.335182 204.390577 
L 108.088636 204.390577 
z
" style="fill:#0000ff;"/>
   </g>
   <g id="patch_24">
    <path clip-path="url(#padea8f2159)" d="M 111.335182 301.8675 
L 114.581727 301.8675 
L 114.581727 262.876731 
L 111.335182 262.876731 
z
" style="fill:#0000ff;"/>
   </g>
   <g id="patch_25">
    <path clip-path="url(#padea8f2159)" d="M 114.581727 301.8675 
L 117.828273 301.8675 
L 117.828273 223.885962 
L 114.581727 223.885962 
z
" style="fill:#0000ff;"/>
   </g>
   <g id="patch_26">
    <path clip-path="url(#padea8f2159)" d="M 117.828273 301.8675 
L 121.074818 301.8675 
L 121.074818 282.372115 
L 117.828273 282.372115 
z
" style="fill:#0000ff;"/>
   </g>
   <g id="patch_27">
    <path clip-path="url(#padea8f2159)" d="M 121.074818 301.8675 
L 124.321364 301.8675 
L 124.321364 223.885962 
L 121.074818 223.885962 
z
" style="fill:#0000ff;"/>
   </g>
   <g id="patch_28">
    <path clip-path="url(#padea8f2159)" d="M 124.321364 301.8675 
L 127.567909 301.8675 
L 127.567909 204.390577 
L 124.321364 204.390577 
z
" style="fill:#0000ff;"/>
   </g>
   <g id="patch_29">
    <path clip-path="url(#padea8f2159)" d="M 127.567909 301.8675 
L 130.814455 301.8675 
L 130.814455 223.885962 
L 127.567909 223.885962 
z
" style="fill:#0000ff;"/>
   </g>
   <g id="patch_30">
    <path clip-path="url(#padea8f2159)" d="M 130.814455 301.8675 
L 134.061 301.8675 
L 134.061 204.390577 
L 130.814455 204.390577 
z
" style="fill:#0000ff;"/>
   </g>
   <g id="patch_31">
    <path clip-path="url(#padea8f2159)" d="M 134.061 301.8675 
L 137.307545 301.8675 
L 137.307545 204.390577 
L 134.061 204.390577 
z
" style="fill:#0000ff;"/>
   </g>
   <g id="patch_32">
    <path clip-path="url(#padea8f2159)" d="M 137.307545 301.8675 
L 140.554091 301.8675 
L 140.554091 106.913654 
L 137.307545 106.913654 
z
" style="fill:#0000ff;"/>
   </g>
   <g id="patch_33">
    <path clip-path="url(#padea8f2159)" d="M 140.554091 301.8675 
L 143.800636 301.8675 
L 143.800636 223.885962 
L 140.554091 223.885962 
z
" style="fill:#0000ff;"/>
   </g>
   <g id="patch_34">
    <path clip-path="url(#padea8f2159)" d="M 143.800636 301.8675 
L 147.047182 301.8675 
L 147.047182 165.399808 
L 143.800636 165.399808 
z
" style="fill:#0000ff;"/>
   </g>
   <g id="patch_35">
    <path clip-path="url(#padea8f2159)" d="M 147.047182 301.8675 
L 150.293727 301.8675 
L 150.293727 48.4275 
L 147.047182 48.4275 
z
" style="fill:#0000ff;"/>
   </g>
   <g id="patch_36">
    <path clip-path="url(#padea8f2159)" d="M 150.293727 301.8675 
L 153.540273 301.8675 
L 153.540273 145.904423 
L 150.293727 145.904423 
z
" style="fill:#0000ff;"/>
   </g>
   <g id="patch_37">
    <path clip-path="url(#padea8f2159)" d="M 153.540273 301.8675 
L 156.786818 301.8675 
L 156.786818 184.895192 
L 153.540273 184.895192 
z
" style="fill:#0000ff;"/>
   </g>
   <g id="patch_38">
    <path clip-path="url(#padea8f2159)" d="M 156.786818 301.8675 
L 160.033364 301.8675 
L 160.033364 223.885962 
L 156.786818 223.885962 
z
" style="fill:#0000ff;"/>
   </g>
   <g id="patch_39">
    <path clip-path="url(#padea8f2159)" d="M 160.033364 301.8675 
L 163.279909 301.8675 
L 163.279909 243.381346 
L 160.033364 243.381346 
z
" style="fill:#0000ff;"/>
   </g>
   <g id="patch_40">
    <path clip-path="url(#padea8f2159)" d="M 163.279909 301.8675 
L 166.526455 301.8675 
L 166.526455 145.904423 
L 163.279909 145.904423 
z
" style="fill:#0000ff;"/>
   </g>
   <g id="patch_41">
    <path clip-path="url(#padea8f2159)" d="M 166.526455 301.8675 
L 169.773 301.8675 
L 169.773 126.409038 
L 166.526455 126.409038 
z
" style="fill:#0000ff;"/>
   </g>
   <g id="patch_42">
    <path clip-path="url(#padea8f2159)" d="M 169.773 301.8675 
L 173.019545 301.8675 
L 173.019545 223.885962 
L 169.773 223.885962 
z
" style="fill:#0000ff;"/>
   </g>
   <g id="patch_43">
    <path clip-path="url(#padea8f2159)" d="M 173.019545 301.8675 
L 176.266091 301.8675 
L 176.266091 184.895192 
L 173.019545 184.895192 
z
" style="fill:#0000ff;"/>
   </g>
   <g id="patch_44">
    <path clip-path="url(#padea8f2159)" d="M 176.266091 301.8675 
L 179.512636 301.8675 
L 179.512636 204.390577 
L 176.266091 204.390577 
z
" style="fill:#0000ff;"/>
   </g>
   <g id="patch_45">
    <path clip-path="url(#padea8f2159)" d="M 179.512636 301.8675 
L 182.759182 301.8675 
L 182.759182 145.904423 
L 179.512636 145.904423 
z
" style="fill:#0000ff;"/>
   </g>
   <g id="patch_46">
    <path clip-path="url(#padea8f2159)" d="M 182.759182 301.8675 
L 186.005727 301.8675 
L 186.005727 204.390577 
L 182.759182 204.390577 
z
" style="fill:#0000ff;"/>
   </g>
   <g id="patch_47">
    <path clip-path="url(#padea8f2159)" d="M 186.005727 301.8675 
L 189.252273 301.8675 
L 189.252273 165.399808 
L 186.005727 165.399808 
z
" style="fill:#0000ff;"/>
   </g>
   <g id="patch_48">
    <path clip-path="url(#padea8f2159)" d="M 189.252273 301.8675 
L 192.498818 301.8675 
L 192.498818 165.399808 
L 189.252273 165.399808 
z
" style="fill:#0000ff;"/>
   </g>
   <g id="patch_49">
    <path clip-path="url(#padea8f2159)" d="M 192.498818 301.8675 
L 195.745364 301.8675 
L 195.745364 204.390577 
L 192.498818 204.390577 
z
" style="fill:#0000ff;"/>
   </g>
   <g id="patch_50">
    <path clip-path="url(#padea8f2159)" d="M 195.745364 301.8675 
L 198.991909 301.8675 
L 198.991909 243.381346 
L 195.745364 243.381346 
z
" style="fill:#0000ff;"/>
   </g>
   <g id="patch_51">
    <path clip-path="url(#padea8f2159)" d="M 198.991909 301.8675 
L 202.238455 301.8675 
L 202.238455 223.885962 
L 198.991909 223.885962 
z
" style="fill:#0000ff;"/>
   </g>
   <g id="patch_52">
    <path clip-path="url(#padea8f2159)" d="M 202.238455 301.8675 
L 205.485 301.8675 
L 205.485 243.381346 
L 202.238455 243.381346 
z
" style="fill:#0000ff;"/>
   </g>
   <g id="patch_53">
    <path clip-path="url(#padea8f2159)" d="M 205.485 301.8675 
L 208.731545 301.8675 
L 208.731545 145.904423 
L 205.485 145.904423 
z
" style="fill:#0000ff;"/>
   </g>
   <g id="patch_54">
    <path clip-path="url(#padea8f2159)" d="M 208.731545 301.8675 
L 211.978091 301.8675 
L 211.978091 223.885962 
L 208.731545 223.885962 
z
" style="fill:#0000ff;"/>
   </g>
   <g id="patch_55">
    <path clip-path="url(#padea8f2159)" d="M 211.978091 301.8675 
L 215.224636 301.8675 
L 215.224636 243.381346 
L 211.978091 243.381346 
z
" style="fill:#0000ff;"/>
   </g>
   <g id="patch_56">
    <path clip-path="url(#padea8f2159)" d="M 215.224636 301.8675 
L 218.471182 301.8675 
L 218.471182 223.885962 
L 215.224636 223.885962 
z
" style="fill:#0000ff;"/>
   </g>
   <g id="patch_57">
    <path clip-path="url(#padea8f2159)" d="M 218.471182 301.8675 
L 221.717727 301.8675 
L 221.717727 223.885962 
L 218.471182 223.885962 
z
" style="fill:#0000ff;"/>
   </g>
   <g id="patch_58">
    <path clip-path="url(#padea8f2159)" d="M 221.717727 301.8675 
L 224.964273 301.8675 
L 224.964273 243.381346 
L 221.717727 243.381346 
z
" style="fill:#0000ff;"/>
   </g>
   <g id="patch_59">
    <path clip-path="url(#padea8f2159)" d="M 224.964273 301.8675 
L 228.210818 301.8675 
L 228.210818 243.381346 
L 224.964273 243.381346 
z
" style="fill:#0000ff;"/>
   </g>
   <g id="patch_60">
    <path clip-path="url(#padea8f2159)" d="M 228.210818 301.8675 
L 231.457364 301.8675 
L 231.457364 243.381346 
L 228.210818 243.381346 
z
" style="fill:#0000ff;"/>
   </g>
   <g id="patch_61">
    <path clip-path="url(#padea8f2159)" d="M 231.457364 301.8675 
L 234.703909 301.8675 
L 234.703909 262.876731 
L 231.457364 262.876731 
z
" style="fill:#0000ff;"/>
   </g>
   <g id="patch_62">
    <path clip-path="url(#padea8f2159)" d="M 234.703909 301.8675 
L 237.950455 301.8675 
L 237.950455 223.885962 
L 234.703909 223.885962 
z
" style="fill:#0000ff;"/>
   </g>
   <g id="patch_63">
    <path clip-path="url(#padea8f2159)" d="M 237.950455 301.8675 
L 241.197 301.8675 
L 241.197 223.885962 
L 237.950455 223.885962 
z
" style="fill:#0000ff;"/>
   </g>
   <g id="patch_64">
    <path clip-path="url(#padea8f2159)" d="M 241.197 301.8675 
L 244.443545 301.8675 
L 244.443545 262.876731 
L 241.197 262.876731 
z
" style="fill:#0000ff;"/>
   </g>
   <g id="patch_65">
    <path clip-path="url(#padea8f2159)" d="M 244.443545 301.8675 
L 247.690091 301.8675 
L 247.690091 301.8675 
L 244.443545 301.8675 
z
" style="fill:#0000ff;"/>
   </g>
   <g id="patch_66">
    <path clip-path="url(#padea8f2159)" d="M 247.690091 301.8675 
L 250.936636 301.8675 
L 250.936636 301.8675 
L 247.690091 301.8675 
z
" style="fill:#0000ff;"/>
   </g>
   <g id="patch_67">
    <path clip-path="url(#padea8f2159)" d="M 250.936636 301.8675 
L 254.183182 301.8675 
L 254.183182 223.885962 
L 250.936636 223.885962 
z
" style="fill:#0000ff;"/>
   </g>
   <g id="patch_68">
    <path clip-path="url(#padea8f2159)" d="M 254.183182 301.8675 
L 257.429727 301.8675 
L 257.429727 223.885962 
L 254.183182 223.885962 
z
" style="fill:#0000ff;"/>
   </g>
   <g id="patch_69">
    <path clip-path="url(#padea8f2159)" d="M 257.429727 301.8675 
L 260.676273 301.8675 
L 260.676273 282.372115 
L 257.429727 282.372115 
z
" style="fill:#0000ff;"/>
   </g>
   <g id="patch_70">
    <path clip-path="url(#padea8f2159)" d="M 260.676273 301.8675 
L 263.922818 301.8675 
L 263.922818 282.372115 
L 260.676273 282.372115 
z
" style="fill:#0000ff;"/>
   </g>
   <g id="patch_71">
    <path clip-path="url(#padea8f2159)" d="M 263.922818 301.8675 
L 267.169364 301.8675 
L 267.169364 282.372115 
L 263.922818 282.372115 
z
" style="fill:#0000ff;"/>
   </g>
   <g id="patch_72">
    <path clip-path="url(#padea8f2159)" d="M 267.169364 301.8675 
L 270.415909 301.8675 
L 270.415909 243.381346 
L 267.169364 243.381346 
z
" style="fill:#0000ff;"/>
   </g>
   <g id="patch_73">
    <path clip-path="url(#padea8f2159)" d="M 270.415909 301.8675 
L 273.662455 301.8675 
L 273.662455 301.8675 
L 270.415909 301.8675 
z
" style="fill:#0000ff;"/>
   </g>
   <g id="patch_74">
    <path clip-path="url(#padea8f2159)" d="M 273.662455 301.8675 
L 276.909 301.8675 
L 276.909 301.8675 
L 273.662455 301.8675 
z
" style="fill:#0000ff;"/>
   </g>
   <g id="patch_75">
    <path clip-path="url(#padea8f2159)" d="M 276.909 301.8675 
L 280.155545 301.8675 
L 280.155545 301.8675 
L 276.909 301.8675 
z
" style="fill:#0000ff;"/>
   </g>
   <g id="patch_76">
    <path clip-path="url(#padea8f2159)" d="M 280.155545 301.8675 
L 283.402091 301.8675 
L 283.402091 301.8675 
L 280.155545 301.8675 
z
" style="fill:#0000ff;"/>
   </g>
   <g id="patch_77">
    <path clip-path="url(#padea8f2159)" d="M 283.402091 301.8675 
L 286.648636 301.8675 
L 286.648636 301.8675 
L 283.402091 301.8675 
z
" style="fill:#0000ff;"/>
   </g>
   <g id="patch_78">
    <path clip-path="url(#padea8f2159)" d="M 286.648636 301.8675 
L 289.895182 301.8675 
L 289.895182 282.372115 
L 286.648636 282.372115 
z
" style="fill:#0000ff;"/>
   </g>
   <g id="patch_79">
    <path clip-path="url(#padea8f2159)" d="M 289.895182 301.8675 
L 293.141727 301.8675 
L 293.141727 282.372115 
L 289.895182 282.372115 
z
" style="fill:#0000ff;"/>
   </g>
   <g id="patch_80">
    <path clip-path="url(#padea8f2159)" d="M 293.141727 301.8675 
L 296.388273 301.8675 
L 296.388273 301.8675 
L 293.141727 301.8675 
z
" style="fill:#0000ff;"/>
   </g>
   <g id="patch_81">
    <path clip-path="url(#padea8f2159)" d="M 296.388273 301.8675 
L 299.634818 301.8675 
L 299.634818 301.8675 
L 296.388273 301.8675 
z
" style="fill:#0000ff;"/>
   </g>
   <g id="patch_82">
    <path clip-path="url(#padea8f2159)" d="M 299.634818 301.8675 
L 302.881364 301.8675 
L 302.881364 301.8675 
L 299.634818 301.8675 
z
" style="fill:#0000ff;"/>
   </g>
   <g id="patch_83">
    <path clip-path="url(#padea8f2159)" d="M 302.881364 301.8675 
L 306.127909 301.8675 
L 306.127909 301.8675 
L 302.881364 301.8675 
z
" style="fill:#0000ff;"/>
   </g>
   <g id="patch_84">
    <path clip-path="url(#padea8f2159)" d="M 306.127909 301.8675 
L 309.374455 301.8675 
L 309.374455 301.8675 
L 306.127909 301.8675 
z
" style="fill:#0000ff;"/>
   </g>
   <g id="patch_85">
    <path clip-path="url(#padea8f2159)" d="M 309.374455 301.8675 
L 312.621 301.8675 
L 312.621 301.8675 
L 309.374455 301.8675 
z
" style="fill:#0000ff;"/>
   </g>
   <g id="patch_86">
    <path clip-path="url(#padea8f2159)" d="M 312.621 301.8675 
L 315.867545 301.8675 
L 315.867545 301.8675 
L 312.621 301.8675 
z
" style="fill:#0000ff;"/>
   </g>
   <g id="patch_87">
    <path clip-path="url(#padea8f2159)" d="M 315.867545 301.8675 
L 319.114091 301.8675 
L 319.114091 301.8675 
L 315.867545 301.8675 
z
" style="fill:#0000ff;"/>
   </g>
   <g id="patch_88">
    <path clip-path="url(#padea8f2159)" d="M 319.114091 301.8675 
L 322.360636 301.8675 
L 322.360636 301.8675 
L 319.114091 301.8675 
z
" style="fill:#0000ff;"/>
   </g>
   <g id="patch_89">
    <path clip-path="url(#padea8f2159)" d="M 322.360636 301.8675 
L 325.607182 301.8675 
L 325.607182 301.8675 
L 322.360636 301.8675 
z
" style="fill:#0000ff;"/>
   </g>
   <g id="patch_90">
    <path clip-path="url(#padea8f2159)" d="M 325.607182 301.8675 
L 328.853727 301.8675 
L 328.853727 301.8675 
L 325.607182 301.8675 
z
" style="fill:#0000ff;"/>
   </g>
   <g id="patch_91">
    <path clip-path="url(#padea8f2159)" d="M 328.853727 301.8675 
L 332.100273 301.8675 
L 332.100273 301.8675 
L 328.853727 301.8675 
z
" style="fill:#0000ff;"/>
   </g>
   <g id="patch_92">
    <path clip-path="url(#padea8f2159)" d="M 332.100273 301.8675 
L 335.346818 301.8675 
L 335.346818 282.372115 
L 332.100273 282.372115 
z
" style="fill:#0000ff;"/>
   </g>
   <g id="patch_93">
    <path clip-path="url(#padea8f2159)" d="M 335.346818 301.8675 
L 338.593364 301.8675 
L 338.593364 301.8675 
L 335.346818 301.8675 
z
" style="fill:#0000ff;"/>
   </g>
   <g id="patch_94">
    <path clip-path="url(#padea8f2159)" d="M 338.593364 301.8675 
L 341.839909 301.8675 
L 341.839909 301.8675 
L 338.593364 301.8675 
z
" style="fill:#0000ff;"/>
   </g>
   <g id="patch_95">
    <path clip-path="url(#padea8f2159)" d="M 341.839909 301.8675 
L 345.086455 301.8675 
L 345.086455 301.8675 
L 341.839909 301.8675 
z
" style="fill:#0000ff;"/>
   </g>
   <g id="patch_96">
    <path clip-path="url(#padea8f2159)" d="M 345.086455 301.8675 
L 348.333 301.8675 
L 348.333 301.8675 
L 345.086455 301.8675 
z
" style="fill:#0000ff;"/>
   </g>
   <g id="patch_97">
    <path clip-path="url(#padea8f2159)" d="M 348.333 301.8675 
L 351.579545 301.8675 
L 351.579545 301.8675 
L 348.333 301.8675 
z
" style="fill:#0000ff;"/>
   </g>
   <g id="patch_98">
    <path clip-path="url(#padea8f2159)" d="M 351.579545 301.8675 
L 354.826091 301.8675 
L 354.826091 301.8675 
L 351.579545 301.8675 
z
" style="fill:#0000ff;"/>
   </g>
   <g id="patch_99">
    <path clip-path="url(#padea8f2159)" d="M 354.826091 301.8675 
L 358.072636 301.8675 
L 358.072636 301.8675 
L 354.826091 301.8675 
z
" style="fill:#0000ff;"/>
   </g>
   <g id="patch_100">
    <path clip-path="url(#padea8f2159)" d="M 358.072636 301.8675 
L 361.319182 301.8675 
L 361.319182 301.8675 
L 358.072636 301.8675 
z
" style="fill:#0000ff;"/>
   </g>
   <g id="patch_101">
    <path clip-path="url(#padea8f2159)" d="M 361.319182 301.8675 
L 364.565727 301.8675 
L 364.565727 301.8675 
L 361.319182 301.8675 
z
" style="fill:#0000ff;"/>
   </g>
   <g id="patch_102">
    <path clip-path="url(#padea8f2159)" d="M 364.565727 301.8675 
L 367.812273 301.8675 
L 367.812273 262.876731 
L 364.565727 262.876731 
z
" style="fill:#0000ff;"/>
   </g>
   <g id="matplotlib.axis_1">
    <g id="xtick_1">
     <g id="line2d_1">
      <path clip-path="url(#padea8f2159)" d="M 31.263562 301.8675 
L 31.263562 35.7555 
" style="fill:none;stroke:#b0b0b0;stroke-linecap:square;stroke-width:0.8;"/>
     </g>
     <g id="line2d_2">
      <defs>
       <path d="M 0 0 
L 0 3.5 
" id="m18c6398f0f" style="stroke:#000000;stroke-width:0.8;"/>
      </defs>
      <g>
       <use style="stroke:#000000;stroke-width:0.8;" x="31.263562" xlink:href="#m18c6398f0f" y="301.8675"/>
      </g>
     </g>
     <g id="text_1">
      <!-- 0.2 -->
      <g transform="translate(23.311999 316.465937)scale(0.1 -0.1)">
       <defs>
        <path d="M 2034 4250 
Q 1547 4250 1301 3770 
Q 1056 3291 1056 2328 
Q 1056 1369 1301 889 
Q 1547 409 2034 409 
Q 2525 409 2770 889 
Q 3016 1369 3016 2328 
Q 3016 3291 2770 3770 
Q 2525 4250 2034 4250 
z
M 2034 4750 
Q 2819 4750 3233 4129 
Q 3647 3509 3647 2328 
Q 3647 1150 3233 529 
Q 2819 -91 2034 -91 
Q 1250 -91 836 529 
Q 422 1150 422 2328 
Q 422 3509 836 4129 
Q 1250 4750 2034 4750 
z
" id="DejaVuSans-30" transform="scale(0.015625)"/>
        <path d="M 684 794 
L 1344 794 
L 1344 0 
L 684 0 
L 684 794 
z
" id="DejaVuSans-2e" transform="scale(0.015625)"/>
        <path d="M 1228 531 
L 3431 531 
L 3431 0 
L 469 0 
L 469 531 
Q 828 903 1448 1529 
Q 2069 2156 2228 2338 
Q 2531 2678 2651 2914 
Q 2772 3150 2772 3378 
Q 2772 3750 2511 3984 
Q 2250 4219 1831 4219 
Q 1534 4219 1204 4116 
Q 875 4013 500 3803 
L 500 4441 
Q 881 4594 1212 4672 
Q 1544 4750 1819 4750 
Q 2544 4750 2975 4387 
Q 3406 4025 3406 3419 
Q 3406 3131 3298 2873 
Q 3191 2616 2906 2266 
Q 2828 2175 2409 1742 
Q 1991 1309 1228 531 
z
" id="DejaVuSans-32" transform="scale(0.015625)"/>
       </defs>
       <use xlink:href="#DejaVuSans-30"/>
       <use x="63.623047" xlink:href="#DejaVuSans-2e"/>
       <use x="95.410156" xlink:href="#DejaVuSans-32"/>
      </g>
     </g>
    </g>
    <g id="xtick_2">
     <g id="line2d_3">
      <path clip-path="url(#padea8f2159)" d="M 77.336129 301.8675 
L 77.336129 35.7555 
" style="fill:none;stroke:#b0b0b0;stroke-linecap:square;stroke-width:0.8;"/>
     </g>
     <g id="line2d_4">
      <g>
       <use style="stroke:#000000;stroke-width:0.8;" x="77.336129" xlink:href="#m18c6398f0f" y="301.8675"/>
      </g>
     </g>
     <g id="text_2">
      <!-- 0.4 -->
      <g transform="translate(69.384566 316.465937)scale(0.1 -0.1)">
       <defs>
        <path d="M 2419 4116 
L 825 1625 
L 2419 1625 
L 2419 4116 
z
M 2253 4666 
L 3047 4666 
L 3047 1625 
L 3713 1625 
L 3713 1100 
L 3047 1100 
L 3047 0 
L 2419 0 
L 2419 1100 
L 313 1100 
L 313 1709 
L 2253 4666 
z
" id="DejaVuSans-34" transform="scale(0.015625)"/>
       </defs>
       <use xlink:href="#DejaVuSans-30"/>
       <use x="63.623047" xlink:href="#DejaVuSans-2e"/>
       <use x="95.410156" xlink:href="#DejaVuSans-34"/>
      </g>
     </g>
    </g>
    <g id="xtick_3">
     <g id="line2d_5">
      <path clip-path="url(#padea8f2159)" d="M 123.408696 301.8675 
L 123.408696 35.7555 
" style="fill:none;stroke:#b0b0b0;stroke-linecap:square;stroke-width:0.8;"/>
     </g>
     <g id="line2d_6">
      <g>
       <use style="stroke:#000000;stroke-width:0.8;" x="123.408696" xlink:href="#m18c6398f0f" y="301.8675"/>
      </g>
     </g>
     <g id="text_3">
      <!-- 0.6 -->
      <g transform="translate(115.457133 316.465937)scale(0.1 -0.1)">
       <defs>
        <path d="M 2113 2584 
Q 1688 2584 1439 2293 
Q 1191 2003 1191 1497 
Q 1191 994 1439 701 
Q 1688 409 2113 409 
Q 2538 409 2786 701 
Q 3034 994 3034 1497 
Q 3034 2003 2786 2293 
Q 2538 2584 2113 2584 
z
M 3366 4563 
L 3366 3988 
Q 3128 4100 2886 4159 
Q 2644 4219 2406 4219 
Q 1781 4219 1451 3797 
Q 1122 3375 1075 2522 
Q 1259 2794 1537 2939 
Q 1816 3084 2150 3084 
Q 2853 3084 3261 2657 
Q 3669 2231 3669 1497 
Q 3669 778 3244 343 
Q 2819 -91 2113 -91 
Q 1303 -91 875 529 
Q 447 1150 447 2328 
Q 447 3434 972 4092 
Q 1497 4750 2381 4750 
Q 2619 4750 2861 4703 
Q 3103 4656 3366 4563 
z
" id="DejaVuSans-36" transform="scale(0.015625)"/>
       </defs>
       <use xlink:href="#DejaVuSans-30"/>
       <use x="63.623047" xlink:href="#DejaVuSans-2e"/>
       <use x="95.410156" xlink:href="#DejaVuSans-36"/>
      </g>
     </g>
    </g>
    <g id="xtick_4">
     <g id="line2d_7">
      <path clip-path="url(#padea8f2159)" d="M 169.481263 301.8675 
L 169.481263 35.7555 
" style="fill:none;stroke:#b0b0b0;stroke-linecap:square;stroke-width:0.8;"/>
     </g>
     <g id="line2d_8">
      <g>
       <use style="stroke:#000000;stroke-width:0.8;" x="169.481263" xlink:href="#m18c6398f0f" y="301.8675"/>
      </g>
     </g>
     <g id="text_4">
      <!-- 0.8 -->
      <g transform="translate(161.529701 316.465937)scale(0.1 -0.1)">
       <defs>
        <path d="M 2034 2216 
Q 1584 2216 1326 1975 
Q 1069 1734 1069 1313 
Q 1069 891 1326 650 
Q 1584 409 2034 409 
Q 2484 409 2743 651 
Q 3003 894 3003 1313 
Q 3003 1734 2745 1975 
Q 2488 2216 2034 2216 
z
M 1403 2484 
Q 997 2584 770 2862 
Q 544 3141 544 3541 
Q 544 4100 942 4425 
Q 1341 4750 2034 4750 
Q 2731 4750 3128 4425 
Q 3525 4100 3525 3541 
Q 3525 3141 3298 2862 
Q 3072 2584 2669 2484 
Q 3125 2378 3379 2068 
Q 3634 1759 3634 1313 
Q 3634 634 3220 271 
Q 2806 -91 2034 -91 
Q 1263 -91 848 271 
Q 434 634 434 1313 
Q 434 1759 690 2068 
Q 947 2378 1403 2484 
z
M 1172 3481 
Q 1172 3119 1398 2916 
Q 1625 2713 2034 2713 
Q 2441 2713 2670 2916 
Q 2900 3119 2900 3481 
Q 2900 3844 2670 4047 
Q 2441 4250 2034 4250 
Q 1625 4250 1398 4047 
Q 1172 3844 1172 3481 
z
" id="DejaVuSans-38" transform="scale(0.015625)"/>
       </defs>
       <use xlink:href="#DejaVuSans-30"/>
       <use x="63.623047" xlink:href="#DejaVuSans-2e"/>
       <use x="95.410156" xlink:href="#DejaVuSans-38"/>
      </g>
     </g>
    </g>
    <g id="xtick_5">
     <g id="line2d_9">
      <path clip-path="url(#padea8f2159)" d="M 215.55383 301.8675 
L 215.55383 35.7555 
" style="fill:none;stroke:#b0b0b0;stroke-linecap:square;stroke-width:0.8;"/>
     </g>
     <g id="line2d_10">
      <g>
       <use style="stroke:#000000;stroke-width:0.8;" x="215.55383" xlink:href="#m18c6398f0f" y="301.8675"/>
      </g>
     </g>
     <g id="text_5">
      <!-- 1.0 -->
      <g transform="translate(207.602268 316.465937)scale(0.1 -0.1)">
       <defs>
        <path d="M 794 531 
L 1825 531 
L 1825 4091 
L 703 3866 
L 703 4441 
L 1819 4666 
L 2450 4666 
L 2450 531 
L 3481 531 
L 3481 0 
L 794 0 
L 794 531 
z
" id="DejaVuSans-31" transform="scale(0.015625)"/>
       </defs>
       <use xlink:href="#DejaVuSans-31"/>
       <use x="63.623047" xlink:href="#DejaVuSans-2e"/>
       <use x="95.410156" xlink:href="#DejaVuSans-30"/>
      </g>
     </g>
    </g>
    <g id="xtick_6">
     <g id="line2d_11">
      <path clip-path="url(#padea8f2159)" d="M 261.626398 301.8675 
L 261.626398 35.7555 
" style="fill:none;stroke:#b0b0b0;stroke-linecap:square;stroke-width:0.8;"/>
     </g>
     <g id="line2d_12">
      <g>
       <use style="stroke:#000000;stroke-width:0.8;" x="261.626398" xlink:href="#m18c6398f0f" y="301.8675"/>
      </g>
     </g>
     <g id="text_6">
      <!-- 1.2 -->
      <g transform="translate(253.674835 316.465937)scale(0.1 -0.1)">
       <use xlink:href="#DejaVuSans-31"/>
       <use x="63.623047" xlink:href="#DejaVuSans-2e"/>
       <use x="95.410156" xlink:href="#DejaVuSans-32"/>
      </g>
     </g>
    </g>
    <g id="xtick_7">
     <g id="line2d_13">
      <path clip-path="url(#padea8f2159)" d="M 307.698965 301.8675 
L 307.698965 35.7555 
" style="fill:none;stroke:#b0b0b0;stroke-linecap:square;stroke-width:0.8;"/>
     </g>
     <g id="line2d_14">
      <g>
       <use style="stroke:#000000;stroke-width:0.8;" x="307.698965" xlink:href="#m18c6398f0f" y="301.8675"/>
      </g>
     </g>
     <g id="text_7">
      <!-- 1.4 -->
      <g transform="translate(299.747402 316.465937)scale(0.1 -0.1)">
       <use xlink:href="#DejaVuSans-31"/>
       <use x="63.623047" xlink:href="#DejaVuSans-2e"/>
       <use x="95.410156" xlink:href="#DejaVuSans-34"/>
      </g>
     </g>
    </g>
    <g id="xtick_8">
     <g id="line2d_15">
      <path clip-path="url(#padea8f2159)" d="M 353.771532 301.8675 
L 353.771532 35.7555 
" style="fill:none;stroke:#b0b0b0;stroke-linecap:square;stroke-width:0.8;"/>
     </g>
     <g id="line2d_16">
      <g>
       <use style="stroke:#000000;stroke-width:0.8;" x="353.771532" xlink:href="#m18c6398f0f" y="301.8675"/>
      </g>
     </g>
     <g id="text_8">
      <!-- 1.6 -->
      <g transform="translate(345.819969 316.465937)scale(0.1 -0.1)">
       <use xlink:href="#DejaVuSans-31"/>
       <use x="63.623047" xlink:href="#DejaVuSans-2e"/>
       <use x="95.410156" xlink:href="#DejaVuSans-36"/>
      </g>
     </g>
    </g>
   </g>
   <g id="matplotlib.axis_2">
    <g id="ytick_1">
     <g id="line2d_17">
      <path clip-path="url(#padea8f2159)" d="M 26.925 301.8675 
L 384.045 301.8675 
" style="fill:none;stroke:#b0b0b0;stroke-linecap:square;stroke-width:0.8;"/>
     </g>
     <g id="line2d_18">
      <defs>
       <path d="M 0 0 
L -3.5 0 
" id="m64bbde9d4b" style="stroke:#000000;stroke-width:0.8;"/>
      </defs>
      <g>
       <use style="stroke:#000000;stroke-width:0.8;" x="26.925" xlink:href="#m64bbde9d4b" y="301.8675"/>
      </g>
     </g>
     <g id="text_9">
      <!-- 0 -->
      <g transform="translate(13.5625 305.666719)scale(0.1 -0.1)">
       <use xlink:href="#DejaVuSans-30"/>
      </g>
     </g>
    </g>
    <g id="ytick_2">
     <g id="line2d_19">
      <path clip-path="url(#padea8f2159)" d="M 26.925 262.876731 
L 384.045 262.876731 
" style="fill:none;stroke:#b0b0b0;stroke-linecap:square;stroke-width:0.8;"/>
     </g>
     <g id="line2d_20">
      <g>
       <use style="stroke:#000000;stroke-width:0.8;" x="26.925" xlink:href="#m64bbde9d4b" y="262.876731"/>
      </g>
     </g>
     <g id="text_10">
      <!-- 2 -->
      <g transform="translate(13.5625 266.67595)scale(0.1 -0.1)">
       <use xlink:href="#DejaVuSans-32"/>
      </g>
     </g>
    </g>
    <g id="ytick_3">
     <g id="line2d_21">
      <path clip-path="url(#padea8f2159)" d="M 26.925 223.885962 
L 384.045 223.885962 
" style="fill:none;stroke:#b0b0b0;stroke-linecap:square;stroke-width:0.8;"/>
     </g>
     <g id="line2d_22">
      <g>
       <use style="stroke:#000000;stroke-width:0.8;" x="26.925" xlink:href="#m64bbde9d4b" y="223.885962"/>
      </g>
     </g>
     <g id="text_11">
      <!-- 4 -->
      <g transform="translate(13.5625 227.68518)scale(0.1 -0.1)">
       <use xlink:href="#DejaVuSans-34"/>
      </g>
     </g>
    </g>
    <g id="ytick_4">
     <g id="line2d_23">
      <path clip-path="url(#padea8f2159)" d="M 26.925 184.895192 
L 384.045 184.895192 
" style="fill:none;stroke:#b0b0b0;stroke-linecap:square;stroke-width:0.8;"/>
     </g>
     <g id="line2d_24">
      <g>
       <use style="stroke:#000000;stroke-width:0.8;" x="26.925" xlink:href="#m64bbde9d4b" y="184.895192"/>
      </g>
     </g>
     <g id="text_12">
      <!-- 6 -->
      <g transform="translate(13.5625 188.694411)scale(0.1 -0.1)">
       <use xlink:href="#DejaVuSans-36"/>
      </g>
     </g>
    </g>
    <g id="ytick_5">
     <g id="line2d_25">
      <path clip-path="url(#padea8f2159)" d="M 26.925 145.904423 
L 384.045 145.904423 
" style="fill:none;stroke:#b0b0b0;stroke-linecap:square;stroke-width:0.8;"/>
     </g>
     <g id="line2d_26">
      <g>
       <use style="stroke:#000000;stroke-width:0.8;" x="26.925" xlink:href="#m64bbde9d4b" y="145.904423"/>
      </g>
     </g>
     <g id="text_13">
      <!-- 8 -->
      <g transform="translate(13.5625 149.703642)scale(0.1 -0.1)">
       <use xlink:href="#DejaVuSans-38"/>
      </g>
     </g>
    </g>
    <g id="ytick_6">
     <g id="line2d_27">
      <path clip-path="url(#padea8f2159)" d="M 26.925 106.913654 
L 384.045 106.913654 
" style="fill:none;stroke:#b0b0b0;stroke-linecap:square;stroke-width:0.8;"/>
     </g>
     <g id="line2d_28">
      <g>
       <use style="stroke:#000000;stroke-width:0.8;" x="26.925" xlink:href="#m64bbde9d4b" y="106.913654"/>
      </g>
     </g>
     <g id="text_14">
      <!-- 10 -->
      <g transform="translate(7.2 110.712873)scale(0.1 -0.1)">
       <use xlink:href="#DejaVuSans-31"/>
       <use x="63.623047" xlink:href="#DejaVuSans-30"/>
      </g>
     </g>
    </g>
    <g id="ytick_7">
     <g id="line2d_29">
      <path clip-path="url(#padea8f2159)" d="M 26.925 67.922885 
L 384.045 67.922885 
" style="fill:none;stroke:#b0b0b0;stroke-linecap:square;stroke-width:0.8;"/>
     </g>
     <g id="line2d_30">
      <g>
       <use style="stroke:#000000;stroke-width:0.8;" x="26.925" xlink:href="#m64bbde9d4b" y="67.922885"/>
      </g>
     </g>
     <g id="text_15">
      <!-- 12 -->
      <g transform="translate(7.2 71.722103)scale(0.1 -0.1)">
       <use xlink:href="#DejaVuSans-31"/>
       <use x="63.623047" xlink:href="#DejaVuSans-32"/>
      </g>
     </g>
    </g>
   </g>
   <g id="patch_103">
    <path d="M 26.925 301.8675 
L 26.925 35.7555 
" style="fill:none;stroke:#000000;stroke-linecap:square;stroke-linejoin:miter;stroke-width:0.8;"/>
   </g>
   <g id="patch_104">
    <path d="M 384.045 301.8675 
L 384.045 35.7555 
" style="fill:none;stroke:#000000;stroke-linecap:square;stroke-linejoin:miter;stroke-width:0.8;"/>
   </g>
   <g id="patch_105">
    <path d="M 26.925 301.8675 
L 384.045 301.8675 
" style="fill:none;stroke:#000000;stroke-linecap:square;stroke-linejoin:miter;stroke-width:0.8;"/>
   </g>
   <g id="patch_106">
    <path d="M 26.925 35.7555 
L 384.045 35.7555 
" style="fill:none;stroke:#000000;stroke-linecap:square;stroke-linejoin:miter;stroke-width:0.8;"/>
   </g>
   <g id="text_16">
    <!-- Histogram of samples variance before z-scoring -->
    <g transform="translate(61.8075 16.318125)scale(0.12 -0.12)">
     <defs>
      <path d="M 628 4666 
L 1259 4666 
L 1259 2753 
L 3553 2753 
L 3553 4666 
L 4184 4666 
L 4184 0 
L 3553 0 
L 3553 2222 
L 1259 2222 
L 1259 0 
L 628 0 
L 628 4666 
z
" id="DejaVuSans-48" transform="scale(0.015625)"/>
      <path d="M 603 3500 
L 1178 3500 
L 1178 0 
L 603 0 
L 603 3500 
z
M 603 4863 
L 1178 4863 
L 1178 4134 
L 603 4134 
L 603 4863 
z
" id="DejaVuSans-69" transform="scale(0.015625)"/>
      <path d="M 2834 3397 
L 2834 2853 
Q 2591 2978 2328 3040 
Q 2066 3103 1784 3103 
Q 1356 3103 1142 2972 
Q 928 2841 928 2578 
Q 928 2378 1081 2264 
Q 1234 2150 1697 2047 
L 1894 2003 
Q 2506 1872 2764 1633 
Q 3022 1394 3022 966 
Q 3022 478 2636 193 
Q 2250 -91 1575 -91 
Q 1294 -91 989 -36 
Q 684 19 347 128 
L 347 722 
Q 666 556 975 473 
Q 1284 391 1588 391 
Q 1994 391 2212 530 
Q 2431 669 2431 922 
Q 2431 1156 2273 1281 
Q 2116 1406 1581 1522 
L 1381 1569 
Q 847 1681 609 1914 
Q 372 2147 372 2553 
Q 372 3047 722 3315 
Q 1072 3584 1716 3584 
Q 2034 3584 2315 3537 
Q 2597 3491 2834 3397 
z
" id="DejaVuSans-73" transform="scale(0.015625)"/>
      <path d="M 1172 4494 
L 1172 3500 
L 2356 3500 
L 2356 3053 
L 1172 3053 
L 1172 1153 
Q 1172 725 1289 603 
Q 1406 481 1766 481 
L 2356 481 
L 2356 0 
L 1766 0 
Q 1100 0 847 248 
Q 594 497 594 1153 
L 594 3053 
L 172 3053 
L 172 3500 
L 594 3500 
L 594 4494 
L 1172 4494 
z
" id="DejaVuSans-74" transform="scale(0.015625)"/>
      <path d="M 1959 3097 
Q 1497 3097 1228 2736 
Q 959 2375 959 1747 
Q 959 1119 1226 758 
Q 1494 397 1959 397 
Q 2419 397 2687 759 
Q 2956 1122 2956 1747 
Q 2956 2369 2687 2733 
Q 2419 3097 1959 3097 
z
M 1959 3584 
Q 2709 3584 3137 3096 
Q 3566 2609 3566 1747 
Q 3566 888 3137 398 
Q 2709 -91 1959 -91 
Q 1206 -91 779 398 
Q 353 888 353 1747 
Q 353 2609 779 3096 
Q 1206 3584 1959 3584 
z
" id="DejaVuSans-6f" transform="scale(0.015625)"/>
      <path d="M 2906 1791 
Q 2906 2416 2648 2759 
Q 2391 3103 1925 3103 
Q 1463 3103 1205 2759 
Q 947 2416 947 1791 
Q 947 1169 1205 825 
Q 1463 481 1925 481 
Q 2391 481 2648 825 
Q 2906 1169 2906 1791 
z
M 3481 434 
Q 3481 -459 3084 -895 
Q 2688 -1331 1869 -1331 
Q 1566 -1331 1297 -1286 
Q 1028 -1241 775 -1147 
L 775 -588 
Q 1028 -725 1275 -790 
Q 1522 -856 1778 -856 
Q 2344 -856 2625 -561 
Q 2906 -266 2906 331 
L 2906 616 
Q 2728 306 2450 153 
Q 2172 0 1784 0 
Q 1141 0 747 490 
Q 353 981 353 1791 
Q 353 2603 747 3093 
Q 1141 3584 1784 3584 
Q 2172 3584 2450 3431 
Q 2728 3278 2906 2969 
L 2906 3500 
L 3481 3500 
L 3481 434 
z
" id="DejaVuSans-67" transform="scale(0.015625)"/>
      <path d="M 2631 2963 
Q 2534 3019 2420 3045 
Q 2306 3072 2169 3072 
Q 1681 3072 1420 2755 
Q 1159 2438 1159 1844 
L 1159 0 
L 581 0 
L 581 3500 
L 1159 3500 
L 1159 2956 
Q 1341 3275 1631 3429 
Q 1922 3584 2338 3584 
Q 2397 3584 2469 3576 
Q 2541 3569 2628 3553 
L 2631 2963 
z
" id="DejaVuSans-72" transform="scale(0.015625)"/>
      <path d="M 2194 1759 
Q 1497 1759 1228 1600 
Q 959 1441 959 1056 
Q 959 750 1161 570 
Q 1363 391 1709 391 
Q 2188 391 2477 730 
Q 2766 1069 2766 1631 
L 2766 1759 
L 2194 1759 
z
M 3341 1997 
L 3341 0 
L 2766 0 
L 2766 531 
Q 2569 213 2275 61 
Q 1981 -91 1556 -91 
Q 1019 -91 701 211 
Q 384 513 384 1019 
Q 384 1609 779 1909 
Q 1175 2209 1959 2209 
L 2766 2209 
L 2766 2266 
Q 2766 2663 2505 2880 
Q 2244 3097 1772 3097 
Q 1472 3097 1187 3025 
Q 903 2953 641 2809 
L 641 3341 
Q 956 3463 1253 3523 
Q 1550 3584 1831 3584 
Q 2591 3584 2966 3190 
Q 3341 2797 3341 1997 
z
" id="DejaVuSans-61" transform="scale(0.015625)"/>
      <path d="M 3328 2828 
Q 3544 3216 3844 3400 
Q 4144 3584 4550 3584 
Q 5097 3584 5394 3201 
Q 5691 2819 5691 2113 
L 5691 0 
L 5113 0 
L 5113 2094 
Q 5113 2597 4934 2840 
Q 4756 3084 4391 3084 
Q 3944 3084 3684 2787 
Q 3425 2491 3425 1978 
L 3425 0 
L 2847 0 
L 2847 2094 
Q 2847 2600 2669 2842 
Q 2491 3084 2119 3084 
Q 1678 3084 1418 2786 
Q 1159 2488 1159 1978 
L 1159 0 
L 581 0 
L 581 3500 
L 1159 3500 
L 1159 2956 
Q 1356 3278 1631 3431 
Q 1906 3584 2284 3584 
Q 2666 3584 2933 3390 
Q 3200 3197 3328 2828 
z
" id="DejaVuSans-6d" transform="scale(0.015625)"/>
      <path id="DejaVuSans-20" transform="scale(0.015625)"/>
      <path d="M 2375 4863 
L 2375 4384 
L 1825 4384 
Q 1516 4384 1395 4259 
Q 1275 4134 1275 3809 
L 1275 3500 
L 2222 3500 
L 2222 3053 
L 1275 3053 
L 1275 0 
L 697 0 
L 697 3053 
L 147 3053 
L 147 3500 
L 697 3500 
L 697 3744 
Q 697 4328 969 4595 
Q 1241 4863 1831 4863 
L 2375 4863 
z
" id="DejaVuSans-66" transform="scale(0.015625)"/>
      <path d="M 1159 525 
L 1159 -1331 
L 581 -1331 
L 581 3500 
L 1159 3500 
L 1159 2969 
Q 1341 3281 1617 3432 
Q 1894 3584 2278 3584 
Q 2916 3584 3314 3078 
Q 3713 2572 3713 1747 
Q 3713 922 3314 415 
Q 2916 -91 2278 -91 
Q 1894 -91 1617 61 
Q 1341 213 1159 525 
z
M 3116 1747 
Q 3116 2381 2855 2742 
Q 2594 3103 2138 3103 
Q 1681 3103 1420 2742 
Q 1159 2381 1159 1747 
Q 1159 1113 1420 752 
Q 1681 391 2138 391 
Q 2594 391 2855 752 
Q 3116 1113 3116 1747 
z
" id="DejaVuSans-70" transform="scale(0.015625)"/>
      <path d="M 603 4863 
L 1178 4863 
L 1178 0 
L 603 0 
L 603 4863 
z
" id="DejaVuSans-6c" transform="scale(0.015625)"/>
      <path d="M 3597 1894 
L 3597 1613 
L 953 1613 
Q 991 1019 1311 708 
Q 1631 397 2203 397 
Q 2534 397 2845 478 
Q 3156 559 3463 722 
L 3463 178 
Q 3153 47 2828 -22 
Q 2503 -91 2169 -91 
Q 1331 -91 842 396 
Q 353 884 353 1716 
Q 353 2575 817 3079 
Q 1281 3584 2069 3584 
Q 2775 3584 3186 3129 
Q 3597 2675 3597 1894 
z
M 3022 2063 
Q 3016 2534 2758 2815 
Q 2500 3097 2075 3097 
Q 1594 3097 1305 2825 
Q 1016 2553 972 2059 
L 3022 2063 
z
" id="DejaVuSans-65" transform="scale(0.015625)"/>
      <path d="M 191 3500 
L 800 3500 
L 1894 563 
L 2988 3500 
L 3597 3500 
L 2284 0 
L 1503 0 
L 191 3500 
z
" id="DejaVuSans-76" transform="scale(0.015625)"/>
      <path d="M 3513 2113 
L 3513 0 
L 2938 0 
L 2938 2094 
Q 2938 2591 2744 2837 
Q 2550 3084 2163 3084 
Q 1697 3084 1428 2787 
Q 1159 2491 1159 1978 
L 1159 0 
L 581 0 
L 581 3500 
L 1159 3500 
L 1159 2956 
Q 1366 3272 1645 3428 
Q 1925 3584 2291 3584 
Q 2894 3584 3203 3211 
Q 3513 2838 3513 2113 
z
" id="DejaVuSans-6e" transform="scale(0.015625)"/>
      <path d="M 3122 3366 
L 3122 2828 
Q 2878 2963 2633 3030 
Q 2388 3097 2138 3097 
Q 1578 3097 1268 2742 
Q 959 2388 959 1747 
Q 959 1106 1268 751 
Q 1578 397 2138 397 
Q 2388 397 2633 464 
Q 2878 531 3122 666 
L 3122 134 
Q 2881 22 2623 -34 
Q 2366 -91 2075 -91 
Q 1284 -91 818 406 
Q 353 903 353 1747 
Q 353 2603 823 3093 
Q 1294 3584 2113 3584 
Q 2378 3584 2631 3529 
Q 2884 3475 3122 3366 
z
" id="DejaVuSans-63" transform="scale(0.015625)"/>
      <path d="M 3116 1747 
Q 3116 2381 2855 2742 
Q 2594 3103 2138 3103 
Q 1681 3103 1420 2742 
Q 1159 2381 1159 1747 
Q 1159 1113 1420 752 
Q 1681 391 2138 391 
Q 2594 391 2855 752 
Q 3116 1113 3116 1747 
z
M 1159 2969 
Q 1341 3281 1617 3432 
Q 1894 3584 2278 3584 
Q 2916 3584 3314 3078 
Q 3713 2572 3713 1747 
Q 3713 922 3314 415 
Q 2916 -91 2278 -91 
Q 1894 -91 1617 61 
Q 1341 213 1159 525 
L 1159 0 
L 581 0 
L 581 4863 
L 1159 4863 
L 1159 2969 
z
" id="DejaVuSans-62" transform="scale(0.015625)"/>
      <path d="M 353 3500 
L 3084 3500 
L 3084 2975 
L 922 459 
L 3084 459 
L 3084 0 
L 275 0 
L 275 525 
L 2438 3041 
L 353 3041 
L 353 3500 
z
" id="DejaVuSans-7a" transform="scale(0.015625)"/>
      <path d="M 313 2009 
L 1997 2009 
L 1997 1497 
L 313 1497 
L 313 2009 
z
" id="DejaVuSans-2d" transform="scale(0.015625)"/>
     </defs>
     <use xlink:href="#DejaVuSans-48"/>
     <use x="75.195312" xlink:href="#DejaVuSans-69"/>
     <use x="102.978516" xlink:href="#DejaVuSans-73"/>
     <use x="155.078125" xlink:href="#DejaVuSans-74"/>
     <use x="194.287109" xlink:href="#DejaVuSans-6f"/>
     <use x="255.46875" xlink:href="#DejaVuSans-67"/>
     <use x="318.945312" xlink:href="#DejaVuSans-72"/>
     <use x="360.058594" xlink:href="#DejaVuSans-61"/>
     <use x="421.337891" xlink:href="#DejaVuSans-6d"/>
     <use x="518.75" xlink:href="#DejaVuSans-20"/>
     <use x="550.537109" xlink:href="#DejaVuSans-6f"/>
     <use x="611.71875" xlink:href="#DejaVuSans-66"/>
     <use x="646.923828" xlink:href="#DejaVuSans-20"/>
     <use x="678.710938" xlink:href="#DejaVuSans-73"/>
     <use x="730.810547" xlink:href="#DejaVuSans-61"/>
     <use x="792.089844" xlink:href="#DejaVuSans-6d"/>
     <use x="889.501953" xlink:href="#DejaVuSans-70"/>
     <use x="952.978516" xlink:href="#DejaVuSans-6c"/>
     <use x="980.761719" xlink:href="#DejaVuSans-65"/>
     <use x="1042.285156" xlink:href="#DejaVuSans-73"/>
     <use x="1094.384766" xlink:href="#DejaVuSans-20"/>
     <use x="1126.171875" xlink:href="#DejaVuSans-76"/>
     <use x="1185.351562" xlink:href="#DejaVuSans-61"/>
     <use x="1246.630859" xlink:href="#DejaVuSans-72"/>
     <use x="1287.744141" xlink:href="#DejaVuSans-69"/>
     <use x="1315.527344" xlink:href="#DejaVuSans-61"/>
     <use x="1376.806641" xlink:href="#DejaVuSans-6e"/>
     <use x="1440.185547" xlink:href="#DejaVuSans-63"/>
     <use x="1495.166016" xlink:href="#DejaVuSans-65"/>
     <use x="1556.689453" xlink:href="#DejaVuSans-20"/>
     <use x="1588.476562" xlink:href="#DejaVuSans-62"/>
     <use x="1651.953125" xlink:href="#DejaVuSans-65"/>
     <use x="1713.476562" xlink:href="#DejaVuSans-66"/>
     <use x="1748.681641" xlink:href="#DejaVuSans-6f"/>
     <use x="1809.863281" xlink:href="#DejaVuSans-72"/>
     <use x="1848.726562" xlink:href="#DejaVuSans-65"/>
     <use x="1910.25" xlink:href="#DejaVuSans-20"/>
     <use x="1942.037109" xlink:href="#DejaVuSans-7a"/>
     <use x="1994.527344" xlink:href="#DejaVuSans-2d"/>
     <use x="2030.611328" xlink:href="#DejaVuSans-73"/>
     <use x="2082.710938" xlink:href="#DejaVuSans-63"/>
     <use x="2137.691406" xlink:href="#DejaVuSans-6f"/>
     <use x="2198.873047" xlink:href="#DejaVuSans-72"/>
     <use x="2239.986328" xlink:href="#DejaVuSans-69"/>
     <use x="2267.769531" xlink:href="#DejaVuSans-6e"/>
     <use x="2331.148438" xlink:href="#DejaVuSans-67"/>
    </g>
    <!-- mean=0.8022466612674327, std=0.22781896294782614 -->
    <g transform="translate(27.886875 29.7555)scale(0.12 -0.12)">
     <defs>
      <path d="M 678 2906 
L 4684 2906 
L 4684 2381 
L 678 2381 
L 678 2906 
z
M 678 1631 
L 4684 1631 
L 4684 1100 
L 678 1100 
L 678 1631 
z
" id="DejaVuSans-3d" transform="scale(0.015625)"/>
      <path d="M 525 4666 
L 3525 4666 
L 3525 4397 
L 1831 0 
L 1172 0 
L 2766 4134 
L 525 4134 
L 525 4666 
z
" id="DejaVuSans-37" transform="scale(0.015625)"/>
      <path d="M 2597 2516 
Q 3050 2419 3304 2112 
Q 3559 1806 3559 1356 
Q 3559 666 3084 287 
Q 2609 -91 1734 -91 
Q 1441 -91 1130 -33 
Q 819 25 488 141 
L 488 750 
Q 750 597 1062 519 
Q 1375 441 1716 441 
Q 2309 441 2620 675 
Q 2931 909 2931 1356 
Q 2931 1769 2642 2001 
Q 2353 2234 1838 2234 
L 1294 2234 
L 1294 2753 
L 1863 2753 
Q 2328 2753 2575 2939 
Q 2822 3125 2822 3475 
Q 2822 3834 2567 4026 
Q 2313 4219 1838 4219 
Q 1578 4219 1281 4162 
Q 984 4106 628 3988 
L 628 4550 
Q 988 4650 1302 4700 
Q 1616 4750 1894 4750 
Q 2613 4750 3031 4423 
Q 3450 4097 3450 3541 
Q 3450 3153 3228 2886 
Q 3006 2619 2597 2516 
z
" id="DejaVuSans-33" transform="scale(0.015625)"/>
      <path d="M 750 794 
L 1409 794 
L 1409 256 
L 897 -744 
L 494 -744 
L 750 256 
L 750 794 
z
" id="DejaVuSans-2c" transform="scale(0.015625)"/>
      <path d="M 2906 2969 
L 2906 4863 
L 3481 4863 
L 3481 0 
L 2906 0 
L 2906 525 
Q 2725 213 2448 61 
Q 2172 -91 1784 -91 
Q 1150 -91 751 415 
Q 353 922 353 1747 
Q 353 2572 751 3078 
Q 1150 3584 1784 3584 
Q 2172 3584 2448 3432 
Q 2725 3281 2906 2969 
z
M 947 1747 
Q 947 1113 1208 752 
Q 1469 391 1925 391 
Q 2381 391 2643 752 
Q 2906 1113 2906 1747 
Q 2906 2381 2643 2742 
Q 2381 3103 1925 3103 
Q 1469 3103 1208 2742 
Q 947 2381 947 1747 
z
" id="DejaVuSans-64" transform="scale(0.015625)"/>
      <path d="M 703 97 
L 703 672 
Q 941 559 1184 500 
Q 1428 441 1663 441 
Q 2288 441 2617 861 
Q 2947 1281 2994 2138 
Q 2813 1869 2534 1725 
Q 2256 1581 1919 1581 
Q 1219 1581 811 2004 
Q 403 2428 403 3163 
Q 403 3881 828 4315 
Q 1253 4750 1959 4750 
Q 2769 4750 3195 4129 
Q 3622 3509 3622 2328 
Q 3622 1225 3098 567 
Q 2575 -91 1691 -91 
Q 1453 -91 1209 -44 
Q 966 3 703 97 
z
M 1959 2075 
Q 2384 2075 2632 2365 
Q 2881 2656 2881 3163 
Q 2881 3666 2632 3958 
Q 2384 4250 1959 4250 
Q 1534 4250 1286 3958 
Q 1038 3666 1038 3163 
Q 1038 2656 1286 2365 
Q 1534 2075 1959 2075 
z
" id="DejaVuSans-39" transform="scale(0.015625)"/>
     </defs>
     <use xlink:href="#DejaVuSans-6d"/>
     <use x="97.412109" xlink:href="#DejaVuSans-65"/>
     <use x="158.935547" xlink:href="#DejaVuSans-61"/>
     <use x="220.214844" xlink:href="#DejaVuSans-6e"/>
     <use x="283.59375" xlink:href="#DejaVuSans-3d"/>
     <use x="367.382812" xlink:href="#DejaVuSans-30"/>
     <use x="431.005859" xlink:href="#DejaVuSans-2e"/>
     <use x="462.792969" xlink:href="#DejaVuSans-38"/>
     <use x="526.416016" xlink:href="#DejaVuSans-30"/>
     <use x="590.039062" xlink:href="#DejaVuSans-32"/>
     <use x="653.662109" xlink:href="#DejaVuSans-32"/>
     <use x="717.285156" xlink:href="#DejaVuSans-34"/>
     <use x="780.908203" xlink:href="#DejaVuSans-36"/>
     <use x="844.53125" xlink:href="#DejaVuSans-36"/>
     <use x="908.154297" xlink:href="#DejaVuSans-36"/>
     <use x="971.777344" xlink:href="#DejaVuSans-31"/>
     <use x="1035.400391" xlink:href="#DejaVuSans-32"/>
     <use x="1099.023438" xlink:href="#DejaVuSans-36"/>
     <use x="1162.646484" xlink:href="#DejaVuSans-37"/>
     <use x="1226.269531" xlink:href="#DejaVuSans-34"/>
     <use x="1289.892578" xlink:href="#DejaVuSans-33"/>
     <use x="1353.515625" xlink:href="#DejaVuSans-32"/>
     <use x="1417.138672" xlink:href="#DejaVuSans-37"/>
     <use x="1480.761719" xlink:href="#DejaVuSans-2c"/>
     <use x="1512.548828" xlink:href="#DejaVuSans-20"/>
     <use x="1544.335938" xlink:href="#DejaVuSans-73"/>
     <use x="1596.435547" xlink:href="#DejaVuSans-74"/>
     <use x="1635.644531" xlink:href="#DejaVuSans-64"/>
     <use x="1699.121094" xlink:href="#DejaVuSans-3d"/>
     <use x="1782.910156" xlink:href="#DejaVuSans-30"/>
     <use x="1846.533203" xlink:href="#DejaVuSans-2e"/>
     <use x="1878.320312" xlink:href="#DejaVuSans-32"/>
     <use x="1941.943359" xlink:href="#DejaVuSans-32"/>
     <use x="2005.566406" xlink:href="#DejaVuSans-37"/>
     <use x="2069.189453" xlink:href="#DejaVuSans-38"/>
     <use x="2132.8125" xlink:href="#DejaVuSans-31"/>
     <use x="2196.435547" xlink:href="#DejaVuSans-38"/>
     <use x="2260.058594" xlink:href="#DejaVuSans-39"/>
     <use x="2323.681641" xlink:href="#DejaVuSans-36"/>
     <use x="2387.304688" xlink:href="#DejaVuSans-32"/>
     <use x="2450.927734" xlink:href="#DejaVuSans-39"/>
     <use x="2514.550781" xlink:href="#DejaVuSans-34"/>
     <use x="2578.173828" xlink:href="#DejaVuSans-37"/>
     <use x="2641.796875" xlink:href="#DejaVuSans-38"/>
     <use x="2705.419922" xlink:href="#DejaVuSans-32"/>
     <use x="2769.042969" xlink:href="#DejaVuSans-36"/>
     <use x="2832.666016" xlink:href="#DejaVuSans-31"/>
     <use x="2896.289062" xlink:href="#DejaVuSans-34"/>
    </g>
   </g>
  </g>
 </g>
 <defs>
  <clipPath id="padea8f2159">
   <rect height="266.112" width="357.12" x="26.925" y="35.7555"/>
  </clipPath>
 </defs>
</svg>
